<svg xmlns="http://www.w3.org/2000/svg" width="96" height="96" viewBox="0 0 64 64"><linearGradient id="a" x1="32" x2="32" y1="16.501" y2="23.293" gradientUnits="userSpaceOnUse" spreadMethod="reflect"><stop offset="0" stop-color="#6dc7ff"/><stop offset="1" stop-color="#e6abff"/></linearGradient><linearGradient id="b" x1="32" x2="32" y1="10.001" y2="55.262" gradientUnits="userSpaceOnUse" spreadMethod="reflect"><stop offset="0" stop-color="#1a6dff"/><stop offset="1" stop-color="#c822ff"/></linearGradient><path fill="url(#a)" d="m23 20.002 9-3 9 3-9 3z"/><path fill="url(#b)" d="m56.635 21.134-3.378-1.133 3.378-1.132A1.978 1.978 0 0 0 58 16.967c0-.88-.538-1.628-1.37-1.907l-14.619-4.902a3.012 3.012 0 0 0-1.909 0L32 12.874l-8.101-2.717a2.974 2.974 0 0 0-1.901-.002l-7.458 2.501c-3.608 1.21-7.08 2.373-7.172 2.403A1.988 1.988 0 0 0 6 16.969a1.978 1.978 0 0 0 1.367 1.9l3.376 1.132-3.372 1.131a1.98 1.98 0 0 0-1.369 1.906 1.98 1.98 0 0 0 1.369 1.905L13 26.831v19.512c0 1.245.833 2.342 2.072 2.729l14.724 4.595c.711.221 1.457.332 2.204.332s1.493-.111 2.204-.332l14.725-4.596C50.167 48.685 51 47.588 51 46.343V26.831l5.629-1.887A1.985 1.985 0 0 0 58 23.036c0-.876-.536-1.624-1.365-1.902zm-15.897-9.08c.205-.068.43-.068.635 0l14.626 4.919-5.944 1.993-15.01-5.003zm-23.576 7.947L32 15.055l14.838 4.946L32 24.948zm-9.16-3.044 7.174-2.405 7.459-2.5a.958.958 0 0 1 .627.002l5.693 1.909-15.001 5zm5.943 4.08 15.01 5.003-5.695 1.908a1 1 0 0 1-.635 0l-14.619-4.92zm1.724 26.126c-.4-.125-.669-.455-.669-.82v-5.491l16 4.889v6.155a5.203 5.203 0 0 1-.608-.14zm32.663-.001-14.724 4.595c-.199.062-.404.101-.608.14v-6.155l16-4.889v5.491c0 .364-.269.694-.668.818zm.668-8.4L33 43.65V32h-2v11.65l-16-4.888v-11.26l6.99 2.344a3.021 3.021 0 0 0 1.907-.001L32 27.129l8.102 2.716a3.006 3.006 0 0 0 1.907 0L49 27.501zm-7.628-10.813a1 1 0 0 1-.635 0l-5.693-1.908 15.001-5 5.949 2.007z"/></svg>