<svg height="96" viewBox="0 0 64 64" width="96" xmlns="http://www.w3.org/2000/svg" xmlns:xlink="http://www.w3.org/1999/xlink"><linearGradient id="a" gradientUnits="userSpaceOnUse" spreadMethod="reflect" x1="32" x2="32" y1="16.501" y2="23.293"><stop offset="0" stop-color="#6dc7ff"/><stop offset="1" stop-color="#e6abff"/></linearGradient><linearGradient id="b" gradientUnits="userSpaceOnUse" spreadMethod="reflect" x1="32" x2="32" y1="10.001" y2="55.262"><stop offset="0" stop-color="#1a6dff"/><stop offset="1" stop-color="#c822ff"/></linearGradient><path d="m23 20.002 9-3 9 3-9 3z" fill="url(#a)"/><path d="m56.635 21.134-3.378-1.133 3.378-1.132a1.978 1.978 0 0 0 1.365-1.902c0-.88-.538-1.628-1.37-1.907l-14.619-4.902a3.012 3.012 0 0 0 -1.909 0l-8.102 2.716-8.101-2.717a2.974 2.974 0 0 0 -1.901-.002l-7.458 2.501c-3.608 1.21-7.08 2.373-7.172 2.403a1.988 1.988 0 0 0 -1.368 1.91 1.978 1.978 0 0 0 1.367 1.9l3.376 1.132-3.372 1.131a1.98 1.98 0 0 0 -1.369 1.906 1.98 1.98 0 0 0 1.369 1.905l5.629 1.888v19.512c0 1.245.833 2.342 2.072 2.729l14.724 4.595c.711.221 1.457.332 2.204.332s1.493-.111 2.204-.332l14.725-4.596c1.238-.386 2.071-1.483 2.071-2.728v-19.512l5.629-1.887a1.985 1.985 0 0 0 1.371-1.908c0-.876-.536-1.624-1.365-1.902zm-15.897-9.08c.205-.068.43-.068.635 0l14.626 4.919-5.944 1.993-15.01-5.003zm-23.576 7.947 14.838-4.946 14.838 4.946-14.838 4.947zm-9.16-3.044 7.174-2.405 7.459-2.5a.958.958 0 0 1 .627.002l5.693 1.909-15.001 5zm5.943 4.08 15.01 5.003-5.695 1.908a1 1 0 0 1 -.635 0l-14.619-4.92zm1.724 26.126c-.4-.125-.669-.455-.669-.82v-5.491l16 4.889v6.155a5.203 5.203 0 0 1 -.608-.14zm32.663-.001-14.724 4.595c-.199.062-.404.101-.608.14v-6.155l16-4.889v5.491c0 .364-.269.694-.668.818zm.668-8.4-16 4.888v-11.65h-2v11.65l-16-4.888v-11.26l6.99 2.344a3.021 3.021 0 0 0 1.907-.001l8.103-2.716 8.102 2.716a3.006 3.006 0 0 0 1.907 0l6.991-2.344zm-7.628-10.813a1 1 0 0 1 -.635 0l-5.693-1.908 15.001-5 5.949 2.007z" fill="url(#b)"/></svg>