<svg xmlns="http://www.w3.org/2000/svg" xmlns:xlink="http://www.w3.org/1999/xlink" width="96" height="96" viewBox="0 0 64 64"><linearGradient id="b" x1="18" x2="18" y1="21.667" y2="28.508" gradientUnits="userSpaceOnUse" spreadMethod="reflect"><stop offset="0" stop-color="#6dc7ff"/><stop offset="1" stop-color="#e6abff"/></linearGradient><linearGradient id="a"><stop offset="0" stop-color="#1a6dff"/><stop offset="1" stop-color="#c822ff"/></linearGradient><linearGradient xlink:href="#a" id="c" x1="32" x2="32" y1="4.5" y2="59.026" gradientUnits="userSpaceOnUse" spreadMethod="reflect"/><linearGradient xlink:href="#a" id="d" x1="45" x2="45" y1="4.5" y2="59.026" gradientUnits="userSpaceOnUse" spreadMethod="reflect"/><linearGradient xlink:href="#a" id="e" x1="34.353" x2="34.353" y1="4.5" y2="59.026" gradientUnits="userSpaceOnUse" spreadMethod="reflect"/><linearGradient xlink:href="#a" id="f" x1="20.938" x2="20.938" y1="4.5" y2="59.026" gradientUnits="userSpaceOnUse" spreadMethod="reflect"/><linearGradient xlink:href="#a" id="g" x1="28.001" x2="28.001" y1="4.5" y2="59.026" gradientUnits="userSpaceOnUse" spreadMethod="reflect"/><linearGradient xlink:href="#a" id="h" x1="36" x2="36" y1="4.5" y2="59.026" gradientUnits="userSpaceOnUse" spreadMethod="reflect"/><linearGradient xlink:href="#a" id="i" x1="28" x2="28" y1="4.5" y2="59.026" gradientUnits="userSpaceOnUse" spreadMethod="reflect"/><linearGradient xlink:href="#a" id="j" x1="20" x2="20" y1="4.5" y2="59.026" gradientUnits="userSpaceOnUse" spreadMethod="reflect"/><path fill="url(#b)" d="M15 28v-5a1 1 0 0 1 1-1h5z"/><path fill="url(#c)" d="M57 18c0-6.617-5.383-12-12-12s-12 5.383-12 12H14c-1.654 0-3 1.346-3 3v1H9c-1.103 0-2 .897-2 2v28c0 1.103.897 2 2 2h2v1c0 1.654 1.346 3 3 3h28c1.654 0 3-1.346 3-3v-1h2c1.103 0 2-.897 2-2V29.3c4.653-1.653 8-6.087 8-11.3zM9 52V24h2v28zm33 4H14a1 1 0 0 1-1-1V21a1 1 0 0 1 1-1h19v10h10v25a1 1 0 0 1-1 1zm5-4h-2V30c.683 0 1.348-.071 2-.181zm-2-24H35V18c0-5.514 4.486-10 10-10s10 4.486 10 10-4.486 10-10 10z"/><path fill="url(#d)" d="m43.25 20.586-3.293-3.293-1.414 1.414 4.707 4.707 8.207-8.207-1.414-1.414z"/><path fill="url(#e)" d="M34.353 36a4.002 4.002 0 0 1-3.667-2.399l-1.832.803a6.004 6.004 0 0 0 10.999-.004l-1.832-.8a4.005 4.005 0 0 1-3.668 2.4z"/><path fill="url(#f)" d="m25.779 34.249-1.938-.498A2.995 2.995 0 0 1 20.937 36a3 3 0 0 1-2.905-2.247l-1.936.5A4.997 4.997 0 0 0 20.937 38a4.998 4.998 0 0 0 4.842-3.751z"/><path fill="url(#g)" d="M32.331 41.499A5.017 5.017 0 0 1 28 44a5.023 5.023 0 0 1-4.331-2.499l-1.73 1.002A7.025 7.025 0 0 0 28 46a7.025 7.025 0 0 0 6.063-3.499z"/><path fill="url(#h)" d="M34 52h4v2h-4z"/><path fill="url(#i)" d="M26 52h4v2h-4z"/><path fill="url(#j)" d="M18 52h4v2h-4z"/></svg>