<svg height="96" viewBox="0 0 64 64" width="96" xmlns="http://www.w3.org/2000/svg" xmlns:xlink="http://www.w3.org/1999/xlink"><linearGradient id="a" gradientUnits="userSpaceOnUse" spreadMethod="reflect" x1="18" x2="18" y1="21.667" y2="28.508"><stop offset="0" stop-color="#6dc7ff"/><stop offset="1" stop-color="#e6abff"/></linearGradient><linearGradient id="b"><stop offset="0" stop-color="#1a6dff"/><stop offset="1" stop-color="#c822ff"/></linearGradient><linearGradient id="c" gradientUnits="userSpaceOnUse" spreadMethod="reflect" x1="32" x2="32" xlink:href="#b" y1="4.5" y2="59.026"/><linearGradient id="d" gradientUnits="userSpaceOnUse" spreadMethod="reflect" x1="45" x2="45" xlink:href="#b" y1="4.5" y2="59.026"/><linearGradient id="e" gradientUnits="userSpaceOnUse" spreadMethod="reflect" x1="34.353" x2="34.353" xlink:href="#b" y1="4.5" y2="59.026"/><linearGradient id="f" gradientUnits="userSpaceOnUse" spreadMethod="reflect" x1="20.938" x2="20.938" xlink:href="#b" y1="4.5" y2="59.026"/><linearGradient id="g" gradientUnits="userSpaceOnUse" spreadMethod="reflect" x1="28.001" x2="28.001" xlink:href="#b" y1="4.5" y2="59.026"/><linearGradient id="h" gradientUnits="userSpaceOnUse" spreadMethod="reflect" x1="36" x2="36" xlink:href="#b" y1="4.5" y2="59.026"/><linearGradient id="i" gradientUnits="userSpaceOnUse" spreadMethod="reflect" x1="28" x2="28" xlink:href="#b" y1="4.5" y2="59.026"/><linearGradient id="j" gradientUnits="userSpaceOnUse" spreadMethod="reflect" x1="20" x2="20" xlink:href="#b" y1="4.5" y2="59.026"/><path d="m15 28v-5a1 1 0 0 1 1-1h5z" fill="url(#a)"/><path d="m57 18c0-6.617-5.383-12-12-12s-12 5.383-12 12h-19c-1.654 0-3 1.346-3 3v1h-2c-1.103 0-2 .897-2 2v28c0 1.103.897 2 2 2h2v1c0 1.654 1.346 3 3 3h28c1.654 0 3-1.346 3-3v-1h2c1.103 0 2-.897 2-2v-22.7c4.653-1.653 8-6.087 8-11.3zm-48 34v-28h2v28zm33 4h-28a1 1 0 0 1 -1-1v-34a1 1 0 0 1 1-1h19v10h10v25a1 1 0 0 1 -1 1zm5-4h-2v-22c.683 0 1.348-.071 2-.181zm-2-24h-10v-10c0-5.514 4.486-10 10-10s10 4.486 10 10-4.486 10-10 10z" fill="url(#c)"/><path d="m43.25 20.586-3.293-3.293-1.414 1.414 4.707 4.707 8.207-8.207-1.414-1.414z" fill="url(#d)"/><path d="m34.353 36a4.002 4.002 0 0 1 -3.667-2.399l-1.832.803a6.004 6.004 0 0 0 10.999-.004l-1.832-.8a4.005 4.005 0 0 1 -3.668 2.4z" fill="url(#e)"/><path d="m25.779 34.249-1.938-.498a2.995 2.995 0 0 1 -2.904 2.249 3 3 0 0 1 -2.905-2.247l-1.936.5a4.997 4.997 0 0 0 4.841 3.747 4.998 4.998 0 0 0 4.842-3.751z" fill="url(#f)"/><path d="m32.331 41.499a5.017 5.017 0 0 1 -4.331 2.501 5.023 5.023 0 0 1 -4.331-2.499l-1.73 1.002a7.025 7.025 0 0 0 6.061 3.497 7.025 7.025 0 0 0 6.063-3.499z" fill="url(#g)"/><path d="m34 52h4v2h-4z" fill="url(#h)"/><path d="m26 52h4v2h-4z" fill="url(#i)"/><path d="m18 52h4v2h-4z" fill="url(#j)"/></svg>