<svg xmlns="http://www.w3.org/2000/svg" xmlns:xlink="http://www.w3.org/1999/xlink" width="96" height="96" viewBox="0 0 64 64"><linearGradient id="a"><stop offset="0" stop-color="#1a6dff"/><stop offset="1" stop-color="#c822ff"/></linearGradient><linearGradient xlink:href="#a" id="b" x1="32" x2="32" y1="5.333" y2="59.507" gradientUnits="userSpaceOnUse" spreadMethod="reflect"/><linearGradient xlink:href="#a" id="c" x1="45" x2="45" y1="5.333" y2="59.507" gradientUnits="userSpaceOnUse" spreadMethod="reflect"/><linearGradient xlink:href="#a" id="d" x1="27" x2="27" y1="5.333" y2="59.507" gradientUnits="userSpaceOnUse" spreadMethod="reflect"/><linearGradient xlink:href="#a" id="e" x1="29" x2="29" y1="5.333" y2="59.507" gradientUnits="userSpaceOnUse" spreadMethod="reflect"/><linearGradient xlink:href="#a" id="f" x1="31" x2="31" y1="5.333" y2="59.507" gradientUnits="userSpaceOnUse" spreadMethod="reflect"/><linearGradient xlink:href="#a" id="g" x1="29" x2="29" y1="5.335" y2="59.506" gradientUnits="userSpaceOnUse" spreadMethod="reflect"/><linearGradient id="h" x1="16" x2="16" y1="25.834" y2="36.835" gradientUnits="userSpaceOnUse" spreadMethod="reflect"><stop offset="0" stop-color="#6dc7ff"/><stop offset="1" stop-color="#e6abff"/></linearGradient><path fill="url(#b)" d="M58 19.001a12.89 12.89 0 0 0-3.985-9.366 12.897 12.897 0 0 0-9.521-3.624c-6.745.256-12.228 5.739-12.484 12.484-.007.169.006.505.006.505H22c-8.822 0-16 7.178-16 16 0 8.667 6.927 15.746 15.535 15.993l5.097 5.927C27.204 57.606 28.067 58 29 58s1.796-.394 2.357-1.067l5.107-5.939C45.073 50.746 52 43.667 52 35c0-1.01-.1-2-.287-3H58zM50 35c0 7.72-6.28 14-14 14h-.459l-5.71 6.641c-.381.457-1.27.47-1.673-.013L22.459 49H22c-7.72 0-14-6.28-14-14s6.28-14 14-14h10.157c.402 3 1.592 5.057 3.477 7.016A12.89 12.89 0 0 0 45 32h4.673c.213 1 .327 1.987.327 3zm6-5H45a10.908 10.908 0 0 1-7.926-3.372 10.92 10.92 0 0 1-3.066-8.057c.213-5.611 4.951-10.35 10.562-10.563a10.915 10.915 0 0 1 8.058 3.066A10.912 10.912 0 0 1 56 19.001z"/><path fill="url(#c)" d="M45 23a2 2 0 1 0 0 4 2 2 0 1 0 0-4z"/><path fill="url(#d)" d="M24 26h6v2h-6z"/><path fill="url(#e)" d="M24 30h10v2H24z"/><path fill="url(#f)" d="M24 34h14v2H24z"/><path fill="url(#g)" d="M12 38h34v2H12z"/><path fill="url(#e)" d="M19 42h20v2H19z"/><path fill="url(#c)" d="M45 12c-2.206 0-4 2-4 4h2c0-1 .897-2 2-2s2 .897 2 2-.897 2-2 2h-1v3h2v-1.126c1-.444 3-2.013 3-3.873A4.004 4.004 0 0 0 45 12z"/><path fill="url(#h)" d="M20 36h-8v-2a8 8 0 0 1 8-8z"/></svg>