<svg fill="none" height="35" viewBox="0 0 132 35" width="132" xmlns="http://www.w3.org/2000/svg"><path d="m38.51 11.26h3.21v13h-3.21zm4.49 8.11c0-3.22 2-5.15 5-5.15s5 1.93 5 5.15-1.93 5.17-5 5.17-5-1.88-5-5.17zm6.82 0c0-1.77-.69-2.81-1.79-2.81s-1.78 1-1.78 2.81.68 2.8 1.78 2.8 1.81-.99 1.81-2.79zm4.46 5.56h3.1a1.66 1.66 0 0 0 1.74 1c1.23 0 1.87-.66 1.87-1.64v-1.8h.01a3.07 3.07 0 0 1 -3 1.75c-2.35 0-3.91-1.79-3.91-4.87s1.49-5 4-5a3.07 3.07 0 0 1 3 1.89h-.09v-1.81h3.18v9.74c0 2.35-2.08 3.82-5.14 3.82-2.78-.01-4.56-1.28-4.74-3.07zm6.72-5.56c0-1.57-.72-2.56-1.86-2.56s-1.84 1-1.84 2.56.69 2.48 1.84 2.48 1.86-.85 1.86-2.48zm4.45 0c0-3.22 2-5.15 5-5.15s5 1.93 5 5.15-1.94 5.17-5 5.17-4.98-1.88-4.98-5.17zm6.82 0c0-1.77-.7-2.81-1.79-2.81s-1.78 1-1.78 2.81.68 2.8 1.78 2.8 1.81-.99 1.81-2.79zm4.48-7.29a1.64 1.64 0 1 1 1.64 1.57 1.582 1.582 0 0 1 -1.62-1.56zm0 2.36h3.25v9.86h-3.2zm14.94 4.93c0 3.21-1.44 5.07-3.89 5.07a3.07 3.07 0 0 1 -3-1.83h-.06v4.86h-3.21v-13h3.19v1.76h.06a3.09 3.09 0 0 1 3-1.9c2.52-.02 3.97 1.83 3.97 5.05zm-3.27 0c0-1.56-.73-2.57-1.86-2.57s-1.84 1-1.85 2.57.72 2.56 1.85 2.56 1.92-.93 1.92-2.55zm8.75-5.16c2.69 0 4.36 1.27 4.38 3.31h-2.93c0-.71-.59-1.15-1.47-1.15s-1.3.34-1.3.85.37.67 1.11.82l2.06.42c2 .42 2.8 1.22 2.8 2.71 0 2-1.85 3.36-4.6 3.36s-4.54-1.32-4.67-3.33h3.11c.09.73.67 1.16 1.61 1.16s1.38-.3 1.38-.83-.3-.62-1.07-.78l-1.86-.39c-1.93-.41-2.94-1.42-2.94-2.93.06-1.96 1.74-3.21 4.45-3.21zm15.4 10.08h-3.11v-1.85h-.06a2.818 2.818 0 0 1 -2.87 2.05 3.43 3.43 0 0 1 -3.53-3.71v-6.33h3.21v5.64c0 1.16.61 1.79 1.61 1.79a1.642 1.642 0 0 0 1.61-1.88v-5.55h3.2zm1.55-9.85h3.12v1.9h.07a2.86 2.86 0 0 1 2.81-2.08 2.558 2.558 0 0 1 2.74 2.09h.14a2.998 2.998 0 0 1 3-2.09 3.118 3.118 0 0 1 3.23 3.35v6.69h-3.23v-5.87c0-1-.47-1.56-1.38-1.56a1.403 1.403 0 0 0 -1.363.993 1.416 1.416 0 0 0 -.047.597v5.84h-3.06v-5.9c0-1-.49-1.53-1.37-1.53a1.429 1.429 0 0 0 -1.43 1.61v5.82h-3.21zm-81.96-2.33a9.88 9.88 0 0 0 -17.16-6.68h-12.48v26.34h26.35v-12.31a9.87 9.87 0 0 0 3.29-7.35zm-5.07 0a4.82 4.82 0 1 1 -9.64.02 4.82 4.82 0 0 1 9.64-.02zm-3.29 14.59h-16.21v-16.2h4.94a9.554 9.554 0 0 0 -.15 1.61 9.9 9.9 0 0 0 9.89 9.89 9.67 9.67 0 0 0 1.53-.13z" fill="#bdc4cc" stop-color="#bdc4cc"/></svg>