<svg fill="none" height="30" viewBox="0 0 119 30" width="119" xmlns="http://www.w3.org/2000/svg"><path d="m2.941 27.825h25.65v-25.65h-25.65zm20.713-15.293h-5.42v-5.42h5.42zm-15.777-5.42h5.423v10.356h10.354v5.42h-15.777zm37.417-4.937a12.825 12.825 0 1 0 12.825 12.825 12.84 12.84 0 0 0 -12.825-12.825zm0 20.713a7.888 7.888 0 1 1 7.888-7.888 7.9 7.9 0 0 1 -7.888 7.888zm58.719-20.713a12.824 12.824 0 1 0 12.824 12.825 12.84 12.84 0 0 0 -12.824-12.825zm0 20.713a7.89 7.89 0 0 1 -1.54-15.624 7.886 7.886 0 0 1 7.113 13.31 7.898 7.898 0 0 1 -5.573 2.314zm-29.36-20.713a12.825 12.825 0 1 0 12.825 12.825 12.84 12.84 0 0 0 -12.825-12.825zm0 20.713a7.888 7.888 0 1 1 7.488-10.356h-7.488v4.936h7.488a7.9 7.9 0 0 1 -7.488 5.42z" fill="#bdc4cc" stop-color="#bdc4cc"/></svg>