<?xml version="1.0" encoding="UTF-8"?>
<!DOCTYPE svg PUBLIC "-//W3C//DTD SVG 1.1//EN" "http://www.w3.org/Graphics/SVG/1.1/DTD/svg11.dtd">
<!-- Creator: CorelDRAW -->
<svg xmlns="http://www.w3.org/2000/svg" xml:space="preserve" width="133mm" height="31mm" style="shape-rendering:geometricPrecision; text-rendering:geometricPrecision; image-rendering:optimizeQuality; fill-rule:evenodd; clip-rule:evenodd"
viewBox="0 0 133 31"
 xmlns:xlink="http://www.w3.org/1999/xlink">
 <defs>
  <style type="text/css">
   <![CDATA[
    .fil0 {fill:#1F1A17;fill-rule:nonzero}
   ]]>
  </style>
 </defs>
 <g id="图层_x0020_1">
  <metadata id="CorelCorpID_0Corel-Layer"/>
  <path class="fil0" d="M16.5474 18.3684l-8.9762 0 -1.5699 3.6593c-0.391,0.8871 -0.5836,1.5583 -0.5836,2.0194 0,0.1809 0.0291,0.3501 0.0933,0.5019 0.0642,0.1517 0.1926,0.2976 0.3852,0.426 0.1926,0.1343 0.4669,0.2393 0.8229,0.3269 0.3502,0.0875 0.8113,0.1517 1.3832,0.1984l0 0.6303 -7.3011 0 0 -0.6303c0.9571,-0.1751 1.5816,-0.3969 1.8793,-0.6712 0.2976,-0.2743 0.6011,-0.6828 0.9163,-1.2373 0.3151,-0.5544 0.6536,-1.2489 1.0155,-2.0952l8.159 -19.0786 0.5953 0 8.0715 19.2829c0.3327,0.7996 0.6362,1.4415 0.9163,1.926 0.2802,0.4844 0.5661,0.8579 0.8638,1.1263 0.2918,0.2685 0.6186,0.4553 0.963,0.5545 0.3501,0.105 0.7645,0.1692 1.2431,0.1926l0 0.6303 -9.1512 0 0 -0.6303c0.4552,-0.0234 0.8404,-0.0759 1.1497,-0.1576 0.3035,-0.0759 0.5486,-0.1809 0.7237,-0.3093 0.1751,-0.1226 0.3035,-0.2626 0.3793,-0.4261 0.0701,-0.1575 0.1109,-0.3326 0.1109,-0.5311 0.0059,-0.2509 -0.0467,-0.5719 -0.1634,-0.9629 -0.1225,-0.3911 -0.2976,-0.8638 -0.5252,-1.4124l-1.4007 -3.3325zm-0.4786 -1.2665l-3.9336 -9.3671 -4.0329 9.3671 7.9665 0z"/>
  <path id="1" class="fil0" d="M41.9642 20.1776c-0.216,1.0389 -0.5428,1.9552 -0.9747,2.7547 -0.4318,0.7996 -0.9396,1.4708 -1.5232,2.0194 -0.5836,0.5486 -1.2198,0.9571 -1.9143,1.2373 -0.6945,0.2801 -1.4124,0.4202 -2.1536,0.4202 -0.8812,0 -1.7158,-0.1926 -2.5154,-0.5837 -0.7996,-0.3851 -1.4999,-0.9396 -2.1127,-1.6574 -0.607,-0.7179 -1.0972,-1.5875 -1.4591,-2.6088 -0.3676,-1.0155 -0.5486,-2.1653 -0.5486,-3.4434 0,-1.2315 0.1985,-2.3579 0.6012,-3.3734 0.3968,-1.0213 0.9338,-1.8967 1.6108,-2.6263 0.6828,-0.7295 1.4707,-1.2956 2.3811,-1.7041 0.9047,-0.4027 1.8676,-0.607 2.8773,-0.607 0.7646,0 1.4707,0.1167 2.1127,0.3443 0.6478,0.2276 1.2023,0.5253 1.6692,0.8871 0.4669,0.3677 0.8346,0.7704 1.103,1.214 0.2685,0.4435 0.4027,0.8871 0.4027,1.319 0,0.4318 -0.14,0.782 -0.4143,1.0505 -0.2743,0.2684 -0.6654,0.4027 -1.179,0.4027 -0.2626,0 -0.5019,-0.0292 -0.7237,-0.0876 -0.2217,-0.0583 -0.4202,-0.1575 -0.5836,-0.3093 -0.1634,-0.1459 -0.2976,-0.3502 -0.4027,-0.6128 -0.0992,-0.2626 -0.1692,-0.6011 -0.2042,-1.0097 -0.0584,-0.6711 -0.2802,-1.1789 -0.677,-1.5291 -0.3911,-0.3501 -0.9455,-0.5194 -1.6634,-0.5194 -0.677,0 -1.2664,0.1459 -1.78,0.4494 -0.5136,0.3035 -0.9455,0.712 -1.3015,1.2315 -0.3502,0.5194 -0.6186,1.1264 -0.7937,1.815 -0.1751,0.6887 -0.2627,1.4182 -0.2627,2.1945 0,0.9104 0.1168,1.7917 0.3502,2.6438 0.2335,0.8462 0.5661,1.6049 1.0097,2.2644 0.4377,0.6595 0.9688,1.1906 1.5991,1.5875 0.6245,0.4027 1.3365,0.6011 2.1361,0.6011 0.4785,0 0.9338,-0.0583 1.3656,-0.1809 0.4319,-0.1167 0.8521,-0.3268 1.249,-0.6245 0.3969,-0.2918 0.7821,-0.7003 1.1556,-1.2198 0.3677,-0.5194 0.7237,-1.1789 1.068,-1.9784l0.4961 0.2392z"/>
  <path id="12" class="fil0" d="M56.0762 10.0051l0 5.3343 -0.5661 0c-0.2159,-0.8404 -0.461,-1.5408 -0.7353,-2.0952 -0.2743,-0.5486 -0.5837,-0.9922 -0.928,-1.3248 -0.3502,-0.3269 -0.7354,-0.5603 -1.1672,-0.7004 -0.4261,-0.1342 -0.8988,-0.2042 -1.4241,-0.2042 -0.4027,0 -0.7645,0.0583 -1.0855,0.1809 -0.3269,0.1167 -0.607,0.2743 -0.8404,0.461 -0.2335,0.1868 -0.4144,0.4027 -0.5487,0.6479 -0.1283,0.2451 -0.1925,0.496 -0.1925,0.747 0,0.3152 0.0408,0.6128 0.1342,0.8871 0.0934,0.2743 0.2801,0.5545 0.5719,0.8463 0.2918,0.2918 0.7062,0.6011 1.249,0.9338 0.5428,0.3268 1.2665,0.7178 2.1827,1.1614 0.8405,0.4085 1.5525,0.817 2.1244,1.2139 0.5778,0.3969 1.0447,0.7996 1.4066,1.1964 0.356,0.3969 0.6128,0.8113 0.7645,1.2432 0.1576,0.426 0.2335,0.8637 0.2335,1.3248 0,0.7178 -0.1518,1.3657 -0.4553,1.9551 -0.2976,0.5895 -0.6945,1.0856 -1.1847,1.4941 -0.4903,0.4144 -1.0505,0.7295 -1.675,0.9571 -0.6303,0.2276 -1.2665,0.3444 -1.9143,0.3444 -0.4786,0 -0.9922,-0.0409 -1.5408,-0.1168 -0.5486,-0.0817 -1.1264,-0.2159 -1.745,-0.3968 -0.1926,-0.0584 -0.3619,-0.0992 -0.5136,-0.1284 -0.1459,-0.0292 -0.286,-0.0409 -0.4085,-0.0409 -0.251,0 -0.4553,0.1459 -0.6187,0.4436l-0.5602 0 0 -5.5911 0.5602 0c0.1634,0.7995 0.4027,1.4999 0.7179,2.101 0.321,0.607 0.6945,1.1089 1.1205,1.5058 0.4319,0.4027 0.9047,0.7003 1.4182,0.9046 0.5195,0.2101 1.0564,0.3093 1.5992,0.3093 0.391,0 0.747,-0.0642 1.0738,-0.1868 0.321,-0.1284 0.607,-0.2918 0.8463,-0.5019 0.2393,-0.2159 0.4202,-0.461 0.5544,-0.747 0.1284,-0.286 0.1926,-0.5895 0.1926,-0.9221 0,-0.3911 -0.0525,-0.7412 -0.1692,-1.0506 -0.1109,-0.3151 -0.3268,-0.6186 -0.6303,-0.9162 -0.3093,-0.2977 -0.7296,-0.607 -1.2665,-0.9338 -0.5369,-0.321 -1.2256,-0.6946 -2.0719,-1.1206 -0.8404,-0.4085 -1.5232,-0.7879 -2.0426,-1.1439 -0.5195,-0.3502 -0.9222,-0.7062 -1.2198,-1.068 -0.2977,-0.3619 -0.4961,-0.7354 -0.6011,-1.1264 -0.0993,-0.3969 -0.1518,-0.8404 -0.1518,-1.3424 0,-0.6419 0.1167,-1.2372 0.3502,-1.7858 0.2334,-0.5545 0.5603,-1.0331 0.9805,-1.4416 0.426,-0.4027 0.9279,-0.7237 1.5057,-0.9571 0.5836,-0.2335 1.2198,-0.3502 1.9143,-0.3502 0.2218,0 0.4961,0.035 0.8404,0.105 0.3444,0.0701 0.6887,0.1401 1.033,0.2218 0.3502,0.0817 0.6654,0.1518 0.9513,0.2218 0.286,0.07 0.4786,0.105 0.5778,0.105 0.1868,0 0.3269,-0.0408 0.4319,-0.1225 0.0992,-0.0817 0.2218,-0.2568 0.356,-0.5311l0.5661 0z"/>
  <path id="123" class="fil0" d="M60.4593 10.4661l6.5657 0 0 0.6362c-0.6011,0.0467 -0.998,0.1517 -1.1906,0.321 -0.1867,0.1751 -0.2801,0.4202 -0.2801,0.7354 0,0.3443 0.0992,0.7703 0.2918,1.2839l3.35 9.0112 3.3675 -7.3362 -0.8871 -2.3053c-0.1167,-0.286 -0.2334,-0.5369 -0.3502,-0.747 -0.1225,-0.2101 -0.2684,-0.3852 -0.4552,-0.5194 -0.1809,-0.1343 -0.4085,-0.2393 -0.6711,-0.3094 -0.2685,-0.0642 -0.6012,-0.1109 -1.0039,-0.1342l0 -0.6362 7.4587 0 0 0.6362c-0.7003,0.035 -1.2197,0.1401 -1.5699,0.321 -0.3444,0.1868 -0.5194,0.5136 -0.5194,0.9922 0,0.2509 0.0466,0.4844 0.14,0.7003l3.5543 8.9995 3.2975 -8.6727c0.2276,-0.6128 0.3443,-1.103 0.3443,-1.4707 0,-0.2159 -0.1109,-0.4085 -0.3327,-0.5778 -0.2217,-0.1751 -0.6595,-0.2685 -1.3073,-0.2918l0 -0.6362 4.9375 0 0 0.6362c-1.0039,0.1576 -1.7334,0.8287 -2.1886,2.0135l-5.2293 13.4934 -0.7003 0 -3.9161 -10.0033 -4.564 10.0033 -0.6361 0 -5.025 -13.1666c-0.1576,-0.4202 -0.3152,-0.7645 -0.4728,-1.033 -0.1517,-0.2685 -0.321,-0.4844 -0.5019,-0.6478 -0.1809,-0.1693 -0.391,-0.2977 -0.6303,-0.3969 -0.2451,-0.0934 -0.5311,-0.1867 -0.8754,-0.2626l0 -0.6362z"/>
  <path id="1234" class="fil0" d="M91.0062 16.3666c0,1.1614 0.1517,2.2061 0.461,3.1282 0.3093,0.9221 0.7237,1.71 1.249,2.352 0.5194,0.642 1.1264,1.1322 1.8209,1.4707 0.6886,0.3385 1.4123,0.502 2.1769,0.502 1.0272,0 1.9201,-0.2802 2.6788,-0.8463 0.7587,-0.5603 1.389,-1.5291 1.9026,-2.8948l0.5311 0.3385c-0.1225,0.7646 -0.3618,1.5174 -0.7178,2.2586 -0.3502,0.7413 -0.8054,1.4007 -1.3599,1.9844 -0.5544,0.5836 -1.1964,1.0505 -1.9318,1.4123 -0.7353,0.356 -1.5349,0.537 -2.3987,0.537 -0.9396,0 -1.8209,-0.1926 -2.6438,-0.572 -0.8287,-0.3852 -1.5524,-0.9221 -2.171,-1.6225 -0.6245,-0.7061 -1.1148,-1.5524 -1.4825,-2.5504 -0.3618,-0.998 -0.5427,-2.1185 -0.5427,-3.3617 0,-1.354 0.1809,-2.5621 0.5544,-3.6126 0.3677,-1.0563 0.8813,-1.9493 1.5291,-2.6788 0.6478,-0.7295 1.4182,-1.2782 2.2995,-1.6575 0.8813,-0.3735 1.8326,-0.5661 2.8481,-0.5661 0.8637,0 1.6691,0.1517 2.4045,0.4552 0.7354,0.3035 1.3657,0.7295 1.9026,1.2898 0.5369,0.5603 0.9572,1.2315 1.2606,2.0077 0.2977,0.782 0.4494,1.6575 0.4494,2.6263l-10.8203 0zm0 -0.9922l7.2486 0c-0.0467,-1.0038 -0.1635,-1.71 -0.3619,-2.1185 -0.2801,-0.6362 -0.7062,-1.1381 -1.2723,-1.5058 -0.5661,-0.3618 -1.1556,-0.5486 -1.7684,-0.5486 -0.4669,0 -0.9163,0.0934 -1.354,0.286 -0.4319,0.1867 -0.8229,0.4611 -1.1789,0.8171 -0.3502,0.3618 -0.6478,0.7995 -0.8813,1.3073 -0.2334,0.5136 -0.3793,1.103 -0.4318,1.7625z"/>
  <path id="12345" class="fil0" d="M108.299 16.3666c0,1.1614 0.1517,2.2061 0.461,3.1282 0.3093,0.9221 0.7237,1.71 1.249,2.352 0.5194,0.642 1.1264,1.1322 1.8209,1.4707 0.6886,0.3385 1.4123,0.502 2.1769,0.502 1.0272,0 1.9201,-0.2802 2.6788,-0.8463 0.7587,-0.5603 1.389,-1.5291 1.9026,-2.8948l0.5311 0.3385c-0.1225,0.7646 -0.3618,1.5174 -0.7178,2.2586 -0.3502,0.7413 -0.8054,1.4007 -1.3599,1.9844 -0.5544,0.5836 -1.1964,1.0505 -1.9318,1.4123 -0.7353,0.356 -1.5349,0.537 -2.3987,0.537 -0.9396,0 -1.8209,-0.1926 -2.6438,-0.572 -0.8287,-0.3852 -1.5524,-0.9221 -2.171,-1.6225 -0.6245,-0.7061 -1.1148,-1.5524 -1.4825,-2.5504 -0.3618,-0.998 -0.5427,-2.1185 -0.5427,-3.3617 0,-1.354 0.1809,-2.5621 0.5544,-3.6126 0.3677,-1.0563 0.8813,-1.9493 1.5291,-2.6788 0.6478,-0.7295 1.4182,-1.2782 2.2995,-1.6575 0.8813,-0.3735 1.8326,-0.5661 2.8481,-0.5661 0.8637,0 1.6691,0.1517 2.4045,0.4552 0.7354,0.3035 1.3657,0.7295 1.9026,1.2898 0.5369,0.5603 0.9572,1.2315 1.2606,2.0077 0.2977,0.782 0.4494,1.6575 0.4494,2.6263l-10.8203 0zm0 -0.9922l7.2486 0c-0.0467,-1.0038 -0.1635,-1.71 -0.3619,-2.1185 -0.2801,-0.6362 -0.7062,-1.1381 -1.2723,-1.5058 -0.5661,-0.3618 -1.1556,-0.5486 -1.7684,-0.5486 -0.4669,0 -0.9163,0.0934 -1.354,0.286 -0.4319,0.1867 -0.8229,0.4611 -1.1789,0.8171 -0.3502,0.3618 -0.6478,0.7995 -0.8813,1.3073 -0.2334,0.5136 -0.3793,1.103 -0.4318,1.7625z"/>
  <path id="123456" class="fil0" d="M127.506 5.3244l0 5.1417 3.6594 0 0 1.1965 -3.6594 0 0 10.1609c0,0.5135 0.0409,0.9338 0.1168,1.2723 0.0817,0.3385 0.1926,0.6011 0.3268,0.7937 0.1342,0.1926 0.2976,0.3268 0.4844,0.4027 0.1926,0.0759 0.3969,0.1109 0.6245,0.1109 0.3793,0 0.7412,-0.1167 1.0972,-0.3502 0.3502,-0.2334 0.6245,-0.5778 0.8229,-1.033l0.6653 0c-0.2042,0.5544 -0.4552,1.0447 -0.747,1.4707 -0.286,0.4202 -0.607,0.7704 -0.9455,1.0505 -0.3443,0.2802 -0.7062,0.4903 -1.0972,0.6304 -0.3852,0.1459 -0.7762,0.2159 -1.1614,0.2159 -0.2626,0 -0.5253,-0.035 -0.7937,-0.1109 -0.2685,-0.0759 -0.5195,-0.1809 -0.7529,-0.3268 -0.2335,-0.1401 -0.4494,-0.3152 -0.642,-0.5194 -0.1926,-0.2043 -0.3502,-0.4436 -0.4611,-0.7179 -0.2392,-0.5486 -0.3618,-1.3832 -0.3618,-2.5154l0 -10.5344 -2.4746 0 0 -0.5603c0.6245,-0.251 1.2665,-0.677 1.9202,-1.2723 0.6536,-0.6011 1.2431,-1.3132 1.7508,-2.1302 0.1284,-0.216 0.286,-0.5253 0.4728,-0.9163 0.1867,-0.391 0.3968,-0.8813 0.6244,-1.4591l0.5311 0z"/>
 </g>
</svg>
