<svg xmlns="http://www.w3.org/2000/svg" width="49" height="48" fill="none" viewBox="0 0 49 48"><path fill="#bdc4cc" d="M24.5 12.75C24.5 18.963 19.463 24 13.25 24H2V12.75C2 6.537 7.037 1.5 13.25 1.5S24.5 6.537 24.5 12.75ZM24.5 35.25C24.5 29.037 29.537 24 35.75 24H47v11.25c0 6.213-5.037 11.25-11.25 11.25S24.5 41.463 24.5 35.25ZM2 35.25C2 41.463 7.037 46.5 13.25 46.5H24.5V35.25C24.5 29.037 19.463 24 13.25 24S2 29.037 2 35.25ZM47 12.75C47 6.537 41.963 1.5 35.75 1.5H24.5v11.25C24.5 18.963 29.537 24 35.75 24S47 18.963 47 12.75Z" class="ccustom" stop-color="#bdc4cc"/></svg>