<svg fill="none" height="40" viewBox="0 0 132 40" width="132" xmlns="http://www.w3.org/2000/svg"><path d="m23.23 11.39h2v13.92h6v2h-8zm14.23 0a6 6 0 1 1 0 12 6 6 0 0 1 0-12zm0 10a4 4 0 1 0 -4-4 4 4 0 0 0 4 3.98zm-4 3.94h8v2h-8zm25.6 2h-2v-1.43a7.69 7.69 0 0 1 -4.4 1.39 8 8 0 1 1 6-13.23l-1.47 1.31a5.999 5.999 0 1 0 -4.46 10 5.77 5.77 0 0 0 4.38-2h-5.4v-2h7.37zm7.36-15.9a6 6 0 1 1 -6 6 6 6 0 0 1 6.02-6.04zm0 10a4 4 0 1 0 -4-4 4 4 0 0 0 4.02 3.94zm-4 3.94h8v2h-8zm12.13-13.98h2v15.9h-2zm4.77 0h2c.103-.01.207-.01.31 0a6 6 0 1 1 0 11.93h-.31v4h-2zm2 2v7.91h.31a4 4 0 1 0 0-7.93 1.467 1.467 0 0 0 -.32.07zm14.41-.85-1.48 1.17a1.94 1.94 0 0 0 -3.33 1.13v.16c0 .88.61 1.47 1.8 1.55 4.58.28 6.68 2.43 6.68 5.27v.18a5.9 5.9 0 0 1 -10.17 3.42l1.53-1.18a3.6 3.6 0 0 0 2.8 1.14 3.74 3.74 0 0 0 3.92-3.38v-.14c0-2.67-2.62-3.16-4.89-3.38-2.1-.2-3.61-1.51-3.61-3.4v-.08a3.85 3.85 0 0 1 3.93-3.56 3.74 3.74 0 0 1 2.81 1.15zm11.5 12.72c2.49 0 4.46-2.69 4.46-6v-8h2v8c0 4.4-2.88 7.95-6.42 7.95s-6.42-3.55-6.42-7.95v-8h2v8c-.08 3.36 1.89 6.05 4.37 6.05zm21.81 2h-2v-9.9l-4.61 6-4.61-6v9.93h-2v-15.9l6.6 8.69 6.6-8.69zm-115.41-18.26a5.44 5.44 0 1 0 -10.88 0v16.45l4.48 3.21v7.82h1.92v-7.82l4.48-3.21zm-1.92 9.2-2.56 2.56v-2.4l2.56-2.56zm-7-2.4 2.56 2.56v2.4l-2.56-2.56zm7-2.72-3.52 3.52-3.52-3.6v-2.4l3.52 3.52 3.52-3.52zm-3.52-7.6a3.54 3.54 0 0 1 3.4 2.61l-3.4 3.39-3.4-3.39a3.54 3.54 0 0 1 3.4-2.65zm-3.52 19v-3.6l2.56 2.56v2.86zm4.48 1.83v-2.87l2.56-2.56v3.59z" fill="#bdc4cc" stop-color="#bdc4cc"/></svg>