<svg fill="none" height="30" viewBox="0 0 78 30" width="78" xmlns="http://www.w3.org/2000/svg"><g fill="#bdc4cc"><path d="m18.515 0c-3.046 0-5.968 1.21-8.122 3.364l-7.029 7.03a11.485 11.485 0 0 0 -3.364 8.119c0 6.346 5.142 11.487 11.485 11.487 3.046 0 5.968-1.21 8.122-3.364l4.862-4.862 14.167-14.167a5.485 5.485 0 0 1 9.095 2.177l4.471-4.471a11.477 11.477 0 0 0 -9.687-5.313c-3.046 0-5.968 1.21-8.122 3.364l-19.029 19.03a5.485 5.485 0 0 1 -7.757-7.758l7.029-7.03a5.485 5.485 0 0 1 9.095 2.178l4.471-4.47a11.477 11.477 0 0 0 -9.687-5.314z" stop-color="#bdc4cc"/><path d="m39.364 22.393a5.485 5.485 0 0 1 -9.095-2.176l-4.47 4.47a11.477 11.477 0 0 0 9.685 5.313c3.046 0 5.968-1.21 8.122-3.364l19.029-19.03a5.485 5.485 0 0 1 7.757 7.758l-7.029 7.03a5.485 5.485 0 0 1 -9.095-2.178l-4.471 4.471a11.476 11.476 0 0 0 9.688 5.313c3.046 0 5.968-1.21 8.122-3.364l7.029-7.03a11.485 11.485 0 0 0 3.364-8.119c0-6.346-5.142-11.487-11.485-11.487-3.046 0-5.968 1.21-8.122 3.364l-19.029 19.03z" stop-color="#bdc4cc"/></g></svg>