<svg xmlns="http://www.w3.org/2000/svg" width="119" height="30" fill="none" viewBox="0 0 119 30"><path fill="#bdc4cc" d="M2.941 27.825h25.65V2.175H2.941zm20.713-15.293h-5.42v-5.42h5.42zM7.877 7.112H13.3v10.356h10.354v5.42H7.877zm37.417-4.937A12.825 12.825 0 1 0 58.119 15 12.84 12.84 0 0 0 45.294 2.175zm0 20.713A7.888 7.888 0 1 1 53.182 15a7.9 7.9 0 0 1-7.888 7.888zm58.719-20.713A12.824 12.824 0 1 0 116.837 15a12.84 12.84 0 0 0-12.824-12.825zm0 20.713a7.89 7.89 0 0 1-1.54-15.624 7.886 7.886 0 0 1 7.113 13.31 7.898 7.898 0 0 1-5.573 2.314zM74.653 2.175A12.825 12.825 0 1 0 87.478 15 12.84 12.84 0 0 0 74.653 2.175zm0 20.713a7.888 7.888 0 1 1 7.488-10.356h-7.488v4.936h7.488a7.9 7.9 0 0 1-7.488 5.42z" stop-color="#bdc4cc"/></svg>