<svg fill="none" height="65" viewBox="0 0 221 65" width="221" xmlns="http://www.w3.org/2000/svg"><path d="m76.333 20.5h6.486l13.744 21.976v-21.976h5.987v31.14h-6.441l-13.79-21.93v21.93h-5.986zm52.978 31.14h-5.579v-3.48c-1.27 2.448-3.855 3.826-7.12 3.826-5.171 0-8.529-3.648-8.529-8.898v-13.87h5.579v12.724c0 3.07 1.906 5.204 4.763 5.204 3.13 0 5.307-2.402 5.307-5.694v-12.234h5.579v22.421zm19.413-.355-5.352-7.474-5.353 7.474h-5.943l8.257-11.7-7.621-10.722h6.078l4.582 6.452 4.534-6.452h6.125l-7.667 10.722 8.256 11.7zm17.236-28.829v6.761h6.351v4.583h-6.351v11.13c0 .374.151.733.421.997.269.265.634.413 1.016.414h4.914v5.29h-3.675c-4.99 0-8.255-2.849-8.255-7.827v-10h-4.49v-4.587h2.817c1.314 0 2.079-.767 2.079-2.037v-4.724zm20.414 22.131v-24.087h5.985v22.242c0 6.006-2.948 8.897-7.937 8.897h-6.967v-5.289h7.122c.476 0 .934-.186 1.271-.516s.526-.78.526-1.247m9.571-3.402h5.763c.319 3.478 2.678 5.693 6.488 5.693 3.402 0 5.763-1.333 5.763-4.091 0-6.674-17.067-2.048-17.067-13.97.004-5.115 4.495-8.67 10.947-8.67 6.714 0 11.249 3.781 11.526 9.61h-5.732c-.27-2.713-2.438-4.537-5.805-4.537-3.13 0-5.08 1.424-5.08 3.602 0 6.895 17.289 1.739 17.289 13.88 0 5.783-4.855 9.298-11.839 9.298-7.212 0-11.929-4.272-12.246-10.811" fill="#012a35"/><path clip-rule="evenodd" d="m29.751 14.261c-1.674-2.88-5.86-2.88-7.535 0l-18.25 31.38c-1.675 2.88.418 6.479 3.767 6.479h14.247c-1.43-1.251-1.96-3.415-.878-5.271l13.822-23.693z" fill="#80eec0" fill-rule="evenodd"/><path d="m41.315 21.144c1.386-2.355 4.85-2.355 6.236 0l15.104 25.676c1.386 2.356-.346 5.3-3.118 5.3h-30.207c-2.772 0-4.504-2.944-3.119-5.3l15.104-25.675z" fill="#00dc82"/></svg>