<svg xmlns="http://www.w3.org/2000/svg"  viewBox="0 0 64 64" width="96px" height="96px"><linearGradient id="MVNbzjk46AedFYhER3FL4a" x1="18" x2="18" y1="21.667" y2="28.508" gradientUnits="userSpaceOnUse" spreadMethod="reflect"><stop offset="0" stop-color="#6dc7ff"/><stop offset="1" stop-color="#e6abff"/></linearGradient><path fill="url(#MVNbzjk46AedFYhER3FL4a)" d="M15,28v-5c0-0.552,0.448-1,1-1h5L15,28z"/><linearGradient id="MVNbzjk46AedFYhER3FL4b" x1="32" x2="32" y1="4.5" y2="59.026" gradientUnits="userSpaceOnUse" spreadMethod="reflect"><stop offset="0" stop-color="#1a6dff"/><stop offset="1" stop-color="#c822ff"/></linearGradient><path fill="url(#MVNbzjk46AedFYhER3FL4b)" d="M57,18c0-6.617-5.383-12-12-12s-12,5.383-12,12H14c-1.654,0-3,1.346-3,3v1H9 c-1.103,0-2,0.897-2,2v28c0,1.103,0.897,2,2,2h2v1c0,1.654,1.346,3,3,3h28c1.654,0,3-1.346,3-3v-1h2c1.103,0,2-0.897,2-2V29.3 C53.653,27.647,57,23.213,57,18z M9,52V24h2v28H9z M42,56H14c-0.552,0-1-0.448-1-1V21c0-0.552,0.448-1,1-1h19v10h10v25 C43,55.552,42.552,56,42,56z M47,52h-2V30c0.683,0,1.348-0.071,2-0.181V52z M45,28H35V18c0-5.514,4.486-10,10-10s10,4.486,10,10 S50.514,28,45,28z"/><linearGradient id="MVNbzjk46AedFYhER3FL4c" x1="45" x2="45" y1="4.5" y2="59.026" gradientUnits="userSpaceOnUse" spreadMethod="reflect"><stop offset="0" stop-color="#1a6dff"/><stop offset="1" stop-color="#c822ff"/></linearGradient><path fill="url(#MVNbzjk46AedFYhER3FL4c)" d="M43.25 20.586L39.957 17.293 38.543 18.707 43.25 23.414 51.457 15.207 50.043 13.793z"/><linearGradient id="MVNbzjk46AedFYhER3FL4d" x1="34.353" x2="34.353" y1="4.5" y2="59.026" gradientUnits="userSpaceOnUse" spreadMethod="reflect"><stop offset="0" stop-color="#1a6dff"/><stop offset="1" stop-color="#c822ff"/></linearGradient><path fill="url(#MVNbzjk46AedFYhER3FL4d)" d="M34.353,36c-1.59,0-3.029-0.941-3.667-2.399l-1.832,0.803C29.81,36.588,31.969,38,34.353,38 c2.386,0,4.545-1.413,5.5-3.6L38.021,33.6C37.383,35.058,35.943,36,34.353,36z"/><linearGradient id="MVNbzjk46AedFYhER3FL4e" x1="20.938" x2="20.938" y1="4.5" y2="59.026" gradientUnits="userSpaceOnUse" spreadMethod="reflect"><stop offset="0" stop-color="#1a6dff"/><stop offset="1" stop-color="#c822ff"/></linearGradient><path fill="url(#MVNbzjk46AedFYhER3FL4e)" d="M25.779,34.249l-1.938-0.498C23.501,35.075,22.307,36,20.937,36 c-1.368,0-2.563-0.924-2.905-2.247l-1.936,0.5C16.665,36.459,18.656,38,20.937,38C23.219,38,25.21,36.458,25.779,34.249z"/><linearGradient id="MVNbzjk46AedFYhER3FL4f" x1="28.001" x2="28.001" y1="4.5" y2="59.026" gradientUnits="userSpaceOnUse" spreadMethod="reflect"><stop offset="0" stop-color="#1a6dff"/><stop offset="1" stop-color="#c822ff"/></linearGradient><path fill="url(#MVNbzjk46AedFYhER3FL4f)" d="M32.331,41.499C31.439,43.042,29.78,44,28,44c-1.778,0-3.438-0.958-4.331-2.499l-1.73,1.002 C23.187,44.66,25.511,46,28,46c2.492,0,4.815-1.341,6.063-3.499L32.331,41.499z"/><linearGradient id="MVNbzjk46AedFYhER3FL4g" x1="36" x2="36" y1="4.5" y2="59.026" gradientUnits="userSpaceOnUse" spreadMethod="reflect"><stop offset="0" stop-color="#1a6dff"/><stop offset="1" stop-color="#c822ff"/></linearGradient><path fill="url(#MVNbzjk46AedFYhER3FL4g)" d="M34 52H38V54H34z"/><linearGradient id="MVNbzjk46AedFYhER3FL4h" x1="28" x2="28" y1="4.5" y2="59.026" gradientUnits="userSpaceOnUse" spreadMethod="reflect"><stop offset="0" stop-color="#1a6dff"/><stop offset="1" stop-color="#c822ff"/></linearGradient><path fill="url(#MVNbzjk46AedFYhER3FL4h)" d="M26 52H30V54H26z"/><linearGradient id="MVNbzjk46AedFYhER3FL4i" x1="20" x2="20" y1="4.5" y2="59.026" gradientUnits="userSpaceOnUse" spreadMethod="reflect"><stop offset="0" stop-color="#1a6dff"/><stop offset="1" stop-color="#c822ff"/></linearGradient><path fill="url(#MVNbzjk46AedFYhER3FL4i)" d="M18 52H22V54H18z"/></svg>