<svg xmlns="http://www.w3.org/2000/svg" width="96" height="96" viewBox="0 0 64 64"><linearGradient id="a" x1="30" x2="30" y1="2" y2="62.513" gradientUnits="userSpaceOnUse" spreadMethod="reflect"><stop offset="0" stop-color="#1a6dff"/><stop offset="1" stop-color="#c822ff"/></linearGradient><path fill="url(#a)" d="M30 32c-3.309 0-6 2.691-6 6a5.999 5.999 0 0 0 3 5.188V45c0 1.654 1.346 3 3 3s3-1.346 3-3v-1.812A5.999 5.999 0 0 0 36 38c0-3.309-2.691-6-6-6zm1 12v1c0 .551-.449 1-1 1s-1-.449-1-1v-1h2zm-1-2c-2.206 0-4-1.794-4-4s1.794-4 4-4 4 1.794 4 4-1.794 4-4 4z"/><linearGradient id="b" x1="34" x2="34" y1="2" y2="62.513" gradientUnits="userSpaceOnUse" spreadMethod="reflect"><stop offset="0" stop-color="#1a6dff"/><stop offset="1" stop-color="#c822ff"/></linearGradient><path fill="url(#b)" d="M50 35.202V28c0-2.757-2.243-5-5-5h-4v-2c0-1.103-.897-2-2-2h-1v-8c0-4.411-3.589-8-8-8s-8 3.589-8 8v8h-1c-1.103 0-2 .897-2 2v2h-4c-2.757 0-5 2.243-5 5v24c0 2.757 2.243 5 5 5h28.051c.252 2.244 2.139 4 4.449 4 2.481 0 4.5-2.019 4.5-4.5v-2.343c3.617-1.58 6-5.174 6-9.157 0-4.829-3.441-8.869-8-9.798zM39 23h-4v-2h4v2zM24 11c0-3.309 2.691-6 6-6s6 2.691 6 6v8h-1c-1.103 0-2 .897-2 2v2h-6v-2c0-1.103-.897-2-2-2h-1v-8zm-3 10h4v2h-4v-2zm15 32H24c-1.103 0-2 .897-2 2h-7c-1.654 0-3-1.346-3-3V28c0-1.654 1.346-3 3-3h30c1.654 0 3 1.346 3 3v7c-5.514 0-10 4.486-10 10 0 3.604 1.9 6.864 5 8.651V55h-5c0-1.103-.897-2-2-2zm14.666-.466-.666.237V56.5c0 1.378-1.122 2.5-2.5 2.5S45 57.878 45 56.5v-4.066l-.554-.276A7.958 7.958 0 0 1 40 45c0-4.411 3.589-8 8-8s8 3.589 8 8a8.01 8.01 0 0 1-5.334 7.534z"/><linearGradient id="c" x1="48" x2="48" y1="39.75" y2="50.378" gradientUnits="userSpaceOnUse" spreadMethod="reflect"><stop offset="0" stop-color="#6dc7ff"/><stop offset="1" stop-color="#e6abff"/></linearGradient><path fill="url(#c)" d="M48 40a5 5 0 1 0 0 10 5 5 0 1 0 0-10Z"/></svg>