<svg fill="none" height="44" viewBox="0 0 70 44" width="70" xmlns="http://www.w3.org/2000/svg"><g fill="#bdc4cc"><path d="m65.527 5.409c0 .05 0 .115-.013.153-.066.5-.066 1-.027 1.514.027.128.053.256.158.359.17.192.433.154.538-.077a.526.526 0 0 0 .026-.346c-.131-.488-.157-1-.17-1.5v-.103c.144-.013.275-.026.393-.026a.635.635 0 0 0 .236-.064c.197-.103.197-.32-.013-.424a.658.658 0 0 0 -.276-.05c-.328.012-.655.012-.983.012-.118 0-.237.013-.355.026-.065.012-.144.012-.196.051-.092.038-.145.103-.145.192.013.09.053.141.145.18a.306.306 0 0 0 .183.051c.158.013.328.039.499.052zm3.607.59c0 .012.013.025.013.025.053.346.105.68.145 1.013.013.116.026.218.105.308.17.218.432.193.55-.038a.561.561 0 0 0 .04-.36c-.079-.384-.118-.769-.197-1.14a7.87 7.87 0 0 0 -.184-.655.308.308 0 0 0 -.288-.23.319.319 0 0 0 -.341.166 1.63 1.63 0 0 0 -.197.32c-.092.206-.17.41-.275.603a.382.382 0 0 1 -.053.129c-.013-.026-.026-.039-.026-.039-.17-.32-.328-.641-.499-.949-.026-.026-.039-.051-.052-.077-.079-.115-.17-.18-.315-.18a.387.387 0 0 0 -.302.206c-.026.051-.026.09-.039.14-.052.411-.118.822-.17 1.232-.027.23-.04.462-.04.693a.252.252 0 0 0 .026.166.236.236 0 0 0 .21.18c.131.013.223-.026.263-.128a.735.735 0 0 0 .065-.206c.053-.23.092-.448.131-.666.027-.129.04-.231.08-.372.025.05.051.09.078.128.118.154.236.308.38.436.144.103.263.09.38-.026l.066-.064c.118-.18.263-.359.38-.539.027-.025.04-.05.066-.076zm-30.225-.339c-.091.244-.109.42-.067.566.047.198.167.263.331.213 1.541-.373 4.92.685 6.17.98.296.061.536-.311.334-.645-.294-.323-3.67-1.707-4.96-1.783-.504-.028-1.407-.154-1.808.67zm13.204-4.48c.165.092.256.18.302.28.067.13.032.219-.082.265-1.018.486-2.374 2.578-2.92 3.3-.133.166-.44.07-.485-.204.009-.308 1.21-2.58 1.88-3.198.264-.241.7-.715 1.305-.443zm-8.111-1.03c.198-.146.403-.197.507-.102 1.537 1.285 2.352 3.32 2.856 5.183.02.043.02.105.005.17-.006.056-.047.114-.113.16-.07.05-.131.065-.16.022-.673-.896-4.52-4.38-3.095-5.433zm-32.541 22.278a5.674 5.674 0 0 1 1.192-.665 2.168 2.168 0 0 1 1.346.059c.43.162.795.456 1.04.839a1.979 1.979 0 0 1 -.335 2.401c-.243.252-.52.472-.822.653-1.348.852-2.707 1.656-4.067 2.507a6.67 6.67 0 0 1 -.882.571 2.3 2.3 0 0 1 -1.52.174 2.258 2.258 0 0 1 -1.282-.815 4.557 4.557 0 0 1 -.596-.944c-1.288-2.648-2.625-5.282-3.865-7.975-.572-1.166-1.037-2.506-1.49-3.8a1.588 1.588 0 0 1 -.107-1.216 1.63 1.63 0 0 1 .79-.944 1.691 1.691 0 0 1 1.24-.137c.415.113.77.381.986.746a19.074 19.074 0 0 1 1.765 2.751c1.288 2.332 2.516 4.664 3.756 6.925.072.125.152.246.239.362a11.65 11.65 0 0 0 2.611-1.492zm13.315-.814c-2.945 3.37-7.882 2.518-10.362-1.819-1.765-3.078-2.075-8.16 1.765-11.367a6.394 6.394 0 0 1 2.85-1.329 6.287 6.287 0 0 1 3.749.634 6.093 6.093 0 0 1 2.654 2.666c2.099 3.73 1.8 8.487-.656 11.215zm-1.192-7.858a4.202 4.202 0 0 0 -1.777-2.215 2.57 2.57 0 0 0 -3.184.198c-1.705 1.48-2.063 4.99-.823 7.077.159.34.39.643.68.886a2.68 2.68 0 0 0 3.183.175 5.502 5.502 0 0 0 1.941-2.76 5.386 5.386 0 0 0 -.056-3.35l.036-.01zm13.211 1.469a2.364 2.364 0 0 1 -1.764-.326 1.74 1.74 0 0 1 -.567-.507 1.693 1.693 0 0 1 -.25-1.444c.07-.244.194-.47.364-.66.296-.385.716-.66 1.192-.782a17.638 17.638 0 0 1 3.816-.641 2.193 2.193 0 0 1 1.599.454c.222.176.406.393.54.64.136.246.219.516.246.795.372 1.367.413 2.8.119 4.185-1.073 4.477-4.77 6.016-8.92 4.582a6.174 6.174 0 0 1 -2.933-2.052 9.54 9.54 0 0 1 -2.063-3.976 8.19 8.19 0 0 1 .094-3.948 8.317 8.317 0 0 1 1.932-3.467 8.435 8.435 0 0 1 3.292-2.46 3.795 3.795 0 0 1 2.67-.35c.206.056.392.164.54.314a1.141 1.141 0 0 1 -.05 1.669 6.127 6.127 0 0 1 -.966.7 9.857 9.857 0 0 0 -2.72 2.506 5.408 5.408 0 0 0 -.973 2.168 5.347 5.347 0 0 0 .056 2.367 5.241 5.241 0 0 0 1.717 2.716c2.623 2.332 6.033.082 5.437-3.1-.87.21-1.633.43-2.409.617zm16.027 6.575c-3.876 2.332-8.288 0-9.253-4.896-.704-3.498.632-8.394 5.306-10.26a6.489 6.489 0 0 1 3.136-.396 6.244 6.244 0 0 1 3.349 1.757 6.01 6.01 0 0 1 1.67 3.338c.788 4.162-1 8.604-4.208 10.458zm1.347-7.846a4.062 4.062 0 0 0 -.99-2.646 2.507 2.507 0 0 0 -1.395-.93 2.557 2.557 0 0 0 -1.681.149c-2.099.886-3.577 4.104-3.04 6.47.04.372.164.73.361 1.05s.464.594.78.802a2.683 2.683 0 0 0 2.184.34 5.629 5.629 0 0 0 2.749-2.025 5.43 5.43 0 0 0 1.032-3.21zm6.781 8.826a1.616 1.616 0 0 1 -.638 1.075 1.689 1.689 0 0 1 -2.327-.306 1.596 1.596 0 0 1 .312-2.275 1.688 1.688 0 0 1 2.327.305c.267.342.384.774.326 1.201zm-1.038-15.728c.227-.338.56-.596.949-.735.389-.138.813-.15 1.21-.034.403.099.759.33 1.009.654.25.325.377.724.362 1.13a13.57 13.57 0 0 1 -.298 1.935c-.393 2.157-.775 4.314-1.192 6.447-.191.851-.442 1.668-.716 2.53-.095.27-.255.514-.465.712a1.217 1.217 0 0 1 -1.621.172 1.171 1.171 0 0 1 -.37-.452 2.654 2.654 0 0 1 -.227-1.015c0-1.445 0-2.903.096-4.36.162-2.08.48-4.145.953-6.18.056-.272.161-.532.31-.769z" stop-color="#bdc4cc"/><path clip-rule="evenodd" d="m6.423 32.149c-.14.307-.18.65-.11.98.045.434.146.861.299 1.272.19.503.405 1 .668 1.613l.19.443c.356.83.802 1.891 1.397 3.427.168.436.317.876.468 1.319l.184.538c.224.64.61 1.214 1.12 1.67.217.25.505.432.828.523.329.093.678.087 1.004-.017.325-.104.611-.301.82-.566.205-.26.327-.573.35-.9a3.538 3.538 0 0 0 -.13-1.913 32.677 32.677 0 0 0 -1.202-3.042l-.002-.004a188.57 188.57 0 0 0 -2.317-4.67l-.006-.01a4.031 4.031 0 0 0 -.9-1.07 1.593 1.593 0 0 0 -1.976-.333c-.302.17-.542.428-.685.74zm11.483-3.85a8.556 8.556 0 0 0 -3.608-.128c-.927.09-1.84.299-2.473.713-.322.211-.583.482-.728.826-.146.346-.164.742-.045 1.183.218.808.501 1.593.784 2.376l.045.127.001.003c.85 2.274 1.707 4.54 2.572 6.8.101.356.244.699.426 1.023l.003.006c.24.402.548.762.91 1.064a1.4 1.4 0 0 0 1.387.289c.237-.08.448-.222.608-.412.157-.186.26-.41.298-.648a3.196 3.196 0 0 0 -.143-1.948c-.078-.208-.14-.421-.204-.646l-.066-.228c1.98-.757 4.088-1.775 4.829-4.143.29-.818.314-1.704.07-2.537a4.193 4.193 0 0 0 -1.442-2.114 8.441 8.441 0 0 0 -3.224-1.606zm-3.268 2.904.118-.03a5.515 5.515 0 0 1 3.715.743c.487.331.687.7.721 1.054.036.365-.1.76-.372 1.14-.516.718-1.456 1.293-2.305 1.4a406.487 406.487 0 0 1 -1.877-4.307z" fill-rule="evenodd" stop-color="#bdc4cc"/><path d="m25.765 25.747c1.403-.634 3.142-.743 4.503-.297.343.097.64.308.841.597.2.287.292.632.261.977a1.396 1.396 0 0 1 -.164.644 1.433 1.433 0 0 1 -.455.508 1.474 1.474 0 0 1 -1.33.173l-.017-.006-.016-.008a1.526 1.526 0 0 0 -.355-.129l-.008-.001c-.957-.249-1.86.163-2.19.67-.157.24-.176.484-.045.706.14.237.484.503 1.18.693.192.051.388.101.587.151.55.14 1.123.285 1.676.485l.002.001c2.553.95 3.504 2.916 3.178 4.766-.322 1.83-1.884 3.494-4.234 3.887a5.143 5.143 0 0 1 -2.581-.105 5.05 5.05 0 0 1 -2.193-1.348l-.015-.016a1.858 1.858 0 0 1 -.373-.81 1.393 1.393 0 0 1 .079-.795c.102-.25.276-.467.499-.625a1.556 1.556 0 0 1 1.673-.127c.26.123.503.28.72.467l.004.003c.385.344.85.433 1.296.35a1.956 1.956 0 0 0 1.153-.693c.272-.346.38-.756.251-1.154-.13-.401-.522-.85-1.384-1.226a7.416 7.416 0 0 0 -.701-.242l-.2-.06c-.18-.053-.364-.108-.545-.169l-.372-.12c-.335-.106-.661-.21-.976-.35a3.355 3.355 0 0 1 -1.685-1.247 3.235 3.235 0 0 1 -.591-1.993c.002-1.729 1.115-2.92 2.527-3.557zm17.797-.184a1.86 1.86 0 0 0 -1.734.07c-.258.15-.475.36-.63.613a1.923 1.923 0 0 0 -.287 1.453c.051.319.107.63.163.936.092.507.181 1.002.24 1.507l.002.013c.134.793.205 1.594.211 2.397v.011a3.289 3.289 0 0 1 -.841 2.37l-.01.012c-.19.24-.445.421-.735.527a1.705 1.705 0 0 1 -1.72-.338 1.628 1.628 0 0 1 -.47-.764 8.138 8.138 0 0 1 -.301-1.887l.297-4.626.015-.185c.01-.14.023-.284.027-.417a2.167 2.167 0 0 0 -.046-.59 1.105 1.105 0 0 0 -.3-.54 1.502 1.502 0 0 0 -.648-.35c-.491-.14-.907-.135-1.253.009-.347.143-.584.41-.752.718-.167.306-.274.668-.355 1.03-.06.269-.108.551-.154.82l-.047.272v.002a19.228 19.228 0 0 0 -.219 4.46c.02.805.19 1.6.507 2.343a5.063 5.063 0 0 0 1.852 2.385 5.242 5.242 0 0 0 2.913.94 5.25 5.25 0 0 0 2.945-.843 5.074 5.074 0 0 0 1.934-2.323c.545-1.208.8-2.521.748-3.84-.032-.963-.086-1.933-.139-2.898-.026-.474-.052-.946-.076-1.416a2.275 2.275 0 0 0 -.455-1.307 1.815 1.815 0 0 0 -.682-.564zm9.634 7.254c-.027.035-.057.07-.087.107a302.265 302.265 0 0 1 -.632-3.747l-.222-1.349-.009-.05-.027-.043c-.051-.082-.056-.162-.056-.332v-.02l-.003-.02a1.757 1.757 0 0 0 -.468-.939c-.248-.26-.57-.44-.924-.518a1.888 1.888 0 0 0 -1.068.054c-.342.12-.64.336-.857.621-.18.219-.329.462-.44.72-.251.56-.505 1.119-.76 1.68l-.004.01c-.635 1.401-1.274 2.812-1.895 4.234l-.002.004c-.38.922-.695 1.894-1.009 2.862l-.188.58c-.113.305-.163.63-.146.954-.02.29.05.58.204.83a1.486 1.486 0 0 0 1.61.65c.312-.077.59-.253.789-.501a5.26 5.26 0 0 0 .65-.992 155.591 155.591 0 0 0 1.53-3.176c.193-.41.38-.777.595-1.177l.045.145a9.3 9.3 0 0 0 1.122 2.74c.098.18.235.338.4.462a1.47 1.47 0 0 0 1.196.259c.206-.044.4-.132.568-.257l.333-.244 2.582-2.126-.152.951c-.21 1.308-.418 2.605-.639 3.902a3.58 3.58 0 0 0 0 1.75c.063.324.223.622.46.856a1.73 1.73 0 0 0 1.868.359c.308-.128.57-.343.753-.616.426-.517.691-1.142.764-1.802.11-.932.233-1.876.357-2.82.143-1.088.286-2.176.406-3.243v-.003c.116-1.168.173-2.34.169-3.514.025-.37-.07-.74-.27-1.056a1.803 1.803 0 0 0 -.855-.704 1.923 1.923 0 0 0 -1.174-.124 1.893 1.893 0 0 0 -1.014.577c-.476.43-.923.891-1.337 1.38l-.003.003a167.33 167.33 0 0 0 -1.348 1.672c-.272.34-.543.678-.812 1.011z" stop-color="#bdc4cc"/></g></svg>