<svg xmlns="http://www.w3.org/2000/svg" width="32" height="32" viewBox="0 0 32 32">
              <g class="nc-icon-wrapper">
                <rect x="2" y="7" width="28" height="18" rx="3" ry="3" fill="#0f70ce" stroke-width="0"></rect>
                <path d="m27.026,9l-.719,1.965-.708-1.965h-3.885v2.582l-1.136-2.582h-3.119l-3.259,7.409h2.637v6.591h8.097l1.316-1.458,1.322,1.458h2.244c.112-.314.184-.647.184-1v-1.041l-1.58-1.698,1.58-1.655v-7.606c0-.353-.072-.686-.184-1h-2.79Z" fill="#fff" stroke-width="0"></path>
                <path d="m17.679,14.433h2.61l.502,1.148h1.78l-2.531-5.754h-2.039l-2.531,5.754h1.734l.477-1.148Zm1.307-3.135l.775,1.844h-1.535l.761-1.844Z" fill="#0f70ce" stroke-width="0"></path>
                <path fill="#0f70ce" stroke-width="0" d="M22.542 9.827L25.018 9.827 26.302 13.39 27.604 9.827 30 9.827 30 15.581 28.45 15.581 28.45 11.603 26.977 15.581 25.608 15.581 24.124 11.631 24.124 15.581 22.542 15.581 22.542 9.827z"></path>
                <path fill="#0f70ce" stroke-width="0" d="M19.24 20.82L19.24 19.944 22.484 19.944 22.484 18.624 19.24 18.624 19.24 17.748 22.565 17.748 22.565 16.409 17.664 16.409 17.664 22.173 22.565 22.173 22.565 20.82 19.24 20.82z"></path>
                <path fill="#0f70ce" stroke-width="0" d="M24.638 16.409L26.271 18.234 27.968 16.409 30 16.409 27.283 19.254 30 22.173 27.939 22.173 26.249 20.309 24.567 22.173 22.537 22.173 25.272 19.275 22.537 16.409 24.638 16.409z"></path>
                <path d="m27,7H5c-1.657,0-3,1.343-3,3v12c0,1.657,1.343,3,3,3h22c1.657,0,3-1.343,3-3v-12c0-1.657-1.343-3-3-3Zm2,15c0,1.103-.897,2-2,2H5c-1.103,0-2-.897-2-2v-12c0-1.103.897-2,2-2h22c1.103,0,2,.897,2,2v12Z" stroke-width="0" opacity=".15"></path>
                <path d="m27,8H5c-1.105,0-2,.895-2,2v1c0-1.105.895-2,2-2h22c1.105,0,2,.895,2,2v-1c0-1.105-.895-2-2-2Z" fill="#fff" opacity=".2" stroke-width="0"></path>
              </g>
            </svg>