<svg xmlns="http://www.w3.org/2000/svg" width="32" height="32" viewBox="0 0 32 32">
              <g class="nc-icon-wrapper">
                <rect x="2" y="7" width="28" height="18" rx="3" ry="3" fill="#1434cb" stroke-width="0"></rect>
                <path d="m27,7H5c-1.657,0-3,1.343-3,3v12c0,1.657,1.343,3,3,3h22c1.657,0,3-1.343,3-3v-12c0-1.657-1.343-3-3-3Zm2,15c0,1.103-.897,2-2,2H5c-1.103,0-2-.897-2-2v-12c0-1.103.897-2,2-2h22c1.103,0,2,.897,2,2v12Z" stroke-width="0" opacity=".15"></path>
                <path d="m27,8H5c-1.105,0-2,.895-2,2v1c0-1.105.895-2,2-2h22c1.105,0,2,.895,2,2v-1c0-1.105-.895-2-2-2Z" fill="#fff" opacity=".2" stroke-width="0"></path>
                <path d="m13.392,12.624l-2.838,6.77h-1.851l-1.397-5.403c-.085-.332-.158-.454-.416-.595-.421-.229-1.117-.443-1.728-.576l.041-.196h2.98c.38,0,.721.253.808.69l.738,3.918,1.822-4.608h1.84Z" fill="#fff" stroke-width="0"></path>
                <path d="m20.646,17.183c.008-1.787-2.47-1.886-2.453-2.684.005-.243.237-.501.743-.567.251-.032.943-.058,1.727.303l.307-1.436c-.421-.152-.964-.299-1.638-.299-1.732,0-2.95.92-2.959,2.238-.011.975.87,1.518,1.533,1.843.683.332.912.545.909.841-.005.454-.545.655-1.047.663-.881.014-1.392-.238-1.799-.428l-.318,1.484c.41.188,1.165.351,1.947.359,1.841,0,3.044-.909,3.05-2.317" fill="#fff" stroke-width="0"></path>
                <path d="m25.423,12.624h-1.494c-.337,0-.62.195-.746.496l-2.628,6.274h1.839l.365-1.011h2.247l.212,1.011h1.62l-1.415-6.77Zm-2.16,4.372l.922-2.542.53,2.542h-1.452Z" fill="#fff" stroke-width="0"></path>
                <path fill="#fff" stroke-width="0" d="M15.894 12.624L14.446 19.394 12.695 19.394 14.143 12.624 15.894 12.624z"></path>
              </g>
            </svg>