<?xml version="1.0" encoding="UTF-8" standalone="no"?>
<!DOCTYPE svg PUBLIC "-//W3C//DTD SVG 1.1//EN" "http://www.w3.org/Graphics/SVG/1.1/DTD/svg11.dtd">
<svg xmlns="http://www.w3.org/2000/svg" version="1.1" viewBox="0.00 0.00 565.00 129.00">
<g stroke-width="2.00" fill="none" stroke-linecap="butt">
<path stroke="#dc7e80" stroke-opacity="0.996" vector-effect="non-scaling-stroke" d="
  M 80.07 10.91
  Q 78.36 13.11 76.58 15.50
  Q 74.72 17.99 73.42 20.32
  Q 68.27 29.54 65.76 34.34
  Q 64.89 36.02 62.73 38.79
  Q 59.92 42.42 59.69 47.03
  Q 59.65 48.01 58.87 48.63
  Q 58.49 48.94 58.32 49.40
  Q 56.98 53.13 56.09 56.08
  C 55.00 59.69 56.43 63.69 57.57 67.89
  Q 58.38 70.90 59.68 72.89
  Q 60.63 74.35 62.13 76.96
  C 64.47 81.03 68.82 84.32 72.94 86.63
  C 75.87 88.28 76.28 91.19 77.53 94.93
  Q 78.35 97.39 79.21 99.40
  Q 83.12 108.49 86.34 116.55
  A 0.65 0.65 0.0 0 1 86.03 117.37
  Q 80.65 120.01 76.39 124.35"
/>
<path stroke="#908d8e" stroke-opacity="0.996" vector-effect="non-scaling-stroke" d="
  M 112.01 50.94
  Q 116.48 51.59 121.00 52.43
  Q 123.07 52.82 124.80 52.06
  A 1.85 1.85 0.0 0 0 124.94 48.74
  L 121.60 46.93
  Q 121.15 46.70 120.87 46.28
  C 118.67 43.07 115.52 43.15 113.28 40.72
  Q 111.41 38.68 109.77 37.09
  Q 108.60 35.96 108.00 33.32
  Q 103.44 13.32 101.37 7.91
  Q 100.87 6.60 97.39 3.63
  C 87.37 -4.91 70.95 29.26 66.46 37.90
  Q 66.34 38.12 66.16 38.26
  C 63.72 40.02 62.16 43.75 61.85 45.97
  Q 61.44 48.85 60.43 50.32
  Q 59.67 51.41 58.30 55.81
  Q 57.50 58.37 58.02 61.49
  Q 59.64 71.22 66.32 79.04
  Q 67.75 80.72 73.93 85.07
  C 76.15 86.63 77.17 87.70 77.99 90.23
  C 80.80 98.98 84.71 107.26 88.32 116.41
  A 1.91 1.90 66.7 0 1 87.36 118.84
  Q 82.80 120.99 79.33 124.30
  A 0.43 0.43 0.0 0 0 79.58 125.04
  Q 80.26 125.11 81.37 125.18
  C 83.07 125.28 84.18 124.53 85.82 124.53
  Q 87.05 124.52 88.39 123.87
  C 90.93 122.62 93.87 121.72 93.83 118.70
  Q 93.82 118.26 92.93 114.86
  Q 89.55 101.88 85.98 90.72
  Q 85.79 90.12 86.37 89.88
  L 86.70 89.75
  Q 87.29 89.50 87.10 88.90
  C 86.25 86.08 83.30 83.63 86.00 80.63
  Q 86.36 80.22 86.90 80.32
  C 88.87 80.66 90.24 80.85 91.79 82.62
  Q 93.21 84.24 94.21 85.13
  A 1.50 1.48 52.2 0 0 95.89 85.35
  Q 98.58 83.98 101.29 83.62
  Q 101.81 83.55 102.13 83.13
  C 105.47 78.64 110.57 81.01 115.23 80.94
  A 0.11 0.11 0.0 0 0 115.34 80.83
  L 115.32 80.51
  A 0.36 0.36 0.0 0 0 114.95 80.16
  Q 112.91 80.22 111.91 78.81
  A 0.52 0.52 0.0 0 1 112.33 77.99
  L 114.25 77.99
  Q 114.69 77.99 114.69 77.55
  L 114.69 76.26
  Q 114.69 75.66 115.29 75.66
  L 115.91 75.66
  A 0.66 0.65 -84.0 0 0 116.55 75.14
  L 116.86 73.66
  A 0.62 0.62 0.0 0 0 116.37 72.93
  L 115.30 72.70
  Q 114.96 72.63 114.72 72.39
  Q 112.71 70.36 110.55 68.73
  Q 108.32 67.03 110.86 67.38
  Q 111.39 67.45 112.02 67.40
  Q 114.32 67.22 112.30 66.27
  Q 112.00 66.13 110.79 66.10
  Q 110.23 66.09 110.02 65.58
  L 109.81 65.08
  Q 109.56 64.47 108.94 64.23
  L 102.45 61.72
  Q 101.96 61.53 101.46 61.71
  L 94.31 64.22
  Q 93.82 64.40 93.49 64.80
  Q 91.97 66.69 91.41 68.13
  Q 90.41 70.71 90.43 67.96
  Q 90.44 66.79 91.91 65.15
  Q 95.46 61.21 96.09 60.56
  C 97.83 58.77 98.76 56.52 99.98 54.69
  Q 100.27 54.27 100.64 54.63
  C 103.89 57.82 107.76 53.84 105.41 50.25
  Q 104.97 49.57 105.76 49.74
  L 108.49 50.30
  Q 109.20 50.45 108.59 50.84
  C 103.67 54.09 109.58 59.44 111.89 55.68
  Q 113.23 53.52 111.72 51.42
  Q 111.30 50.83 112.01 50.94"
/>
<path stroke="#908d8e" stroke-opacity="0.996" vector-effect="non-scaling-stroke" d="
  M 115.6430 58.4157
  A 3.16 2.87 99.6 0 0 118.9998 55.7786
  A 3.16 2.87 99.6 0 0 116.6970 52.1843
  A 3.16 2.87 99.6 0 0 113.3402 54.8214
  A 3.16 2.87 99.6 0 0 115.6430 58.4157"
/>
<path stroke="#908d8e" stroke-opacity="0.996" vector-effect="non-scaling-stroke" d="
  M 125.55 56.53
  A 3.02 3.02 0.0 0 0 122.53 53.51
  A 3.02 3.02 0.0 0 0 119.51 56.53
  A 3.02 3.02 0.0 0 0 122.53 59.55
  A 3.02 3.02 0.0 0 0 125.55 56.53"
/>
<path stroke="#908d8e" stroke-opacity="0.996" vector-effect="non-scaling-stroke" d="
  M 95.26 28.83
  Q 95.90 28.27 96.77 28.29
  A 0.37 0.37 0.0 0 0 97.04 27.66
  Q 94.70 25.36 94.21 22.84
  Q 93.69 20.16 92.67 22.69
  L 90.78 27.34
  A 2.00 1.90 -13.2 0 1 90.38 27.95
  Q 89.78 28.57 89.62 29.19
  Q 89.46 29.77 90.05 29.85
  Q 93.53 30.34 95.26 28.83"
/>
<path stroke="#908d8e" stroke-opacity="0.996" vector-effect="non-scaling-stroke" d="
  M 98.34 41.43
  L 98.91 39.96
  Q 99.22 39.16 98.47 39.59
  C 96.40 40.77 95.28 42.31 92.54 42.19
  Q 91.99 42.16 91.64 42.59
  L 89.44 45.30
  Q 89.14 45.67 89.03 46.14
  Q 88.33 49.06 87.45 49.70
  Q 85.54 51.07 81.66 53.64
  A 1.82 1.82 0.0 0 0 80.94 55.73
  Q 81.83 58.38 81.29 61.13
  Q 81.17 61.71 81.76 61.76
  Q 83.73 61.92 84.55 62.90
  Q 85.49 64.01 86.16 62.72
  C 87.57 60.01 88.76 57.71 90.65 55.38
  Q 94.73 50.31 95.66 49.39
  C 97.63 47.43 97.66 44.81 98.91 42.31
  Q 98.97 42.18 98.78 42.08
  Q 98.74 42.06 98.51 41.92
  Q 98.21 41.75 98.34 41.43"
/>
</g>
<path fill="#bc0004" d="
  M 80.07 10.91
  Q 78.36 13.11 76.58 15.50
  Q 74.72 17.99 73.42 20.32
  Q 68.27 29.54 65.76 34.34
  Q 64.89 36.02 62.73 38.79
  Q 59.92 42.42 59.69 47.03
  Q 59.65 48.01 58.87 48.63
  Q 58.49 48.94 58.32 49.40
  Q 56.98 53.13 56.09 56.08
  C 55.00 59.69 56.43 63.69 57.57 67.89
  Q 58.38 70.90 59.68 72.89
  Q 60.63 74.35 62.13 76.96
  C 64.47 81.03 68.82 84.32 72.94 86.63
  C 75.87 88.28 76.28 91.19 77.53 94.93
  Q 78.35 97.39 79.21 99.40
  Q 83.12 108.49 86.34 116.55
  A 0.65 0.65 0.0 0 1 86.03 117.37
  Q 80.65 120.01 76.39 124.35
  Q 70.89 124.05 69.00 124.24
  Q 52.35 125.91 34.94 127.71
  A 0.32 0.32 0.0 0 1 34.60 127.29
  L 37.55 117.59
  Q 38.47 114.60 36.04 112.63
  L 0.65 83.87
  Q -0.08 83.27 0.77 82.86
  L 8.34 79.22
  A 2.86 2.86 0.0 0 0 9.85 75.87
  L 3.32 52.77
  Q 3.15 52.19 3.75 52.31
  L 23.31 56.35
  A 3.61 3.60 -75.6 0 0 27.49 53.87
  L 30.03 45.54
  A 0.30 0.29 32.3 0 1 30.53 45.43
  Q 38.83 54.27 47.96 64.23
  C 48.65 64.99 49.99 65.56 51.13 64.93
  Q 53.44 63.65 52.82 60.49
  Q 49.09 41.47 45.28 22.56
  A 0.46 0.46 0.0 0 1 45.95 22.07
  L 56.09 27.55
  A 3.68 3.67 28.3 0 0 61.07 26.06
  L 74.27 1.62
  A 0.43 0.42 44.8 0 1 75.02 1.62
  L 80.07 10.91
  Z"
/>
<path fill="#fdfcfc" fill-opacity="0.992" d="
  M 76.39 124.35
  Q 80.65 120.01 86.03 117.37
  A 0.65 0.65 0.0 0 0 86.34 116.55
  Q 83.12 108.49 79.21 99.40
  Q 78.35 97.39 77.53 94.93
  C 76.28 91.19 75.87 88.28 72.94 86.63
  C 68.82 84.32 64.47 81.03 62.13 76.96
  Q 60.63 74.35 59.68 72.89
  Q 58.38 70.90 57.57 67.89
  C 56.43 63.69 55.00 59.69 56.09 56.08
  Q 56.98 53.13 58.32 49.40
  Q 58.49 48.94 58.87 48.63
  Q 59.65 48.01 59.69 47.03
  Q 59.92 42.42 62.73 38.79
  Q 64.89 36.02 65.76 34.34
  Q 68.27 29.54 73.42 20.32
  Q 74.72 17.99 76.58 15.50
  Q 78.36 13.11 80.07 10.91
  Q 80.79 9.20 82.03 8.32
  A 1.73 1.70 -8.0 0 0 82.62 7.55
  Q 83.27 5.86 84.79 4.80
  C 85.66 4.19 85.73 3.76 86.16 2.68
  A 0.87 0.87 0.0 0 1 86.87 2.13
  C 88.15 1.96 88.93 1.39 90.40 1.37
  Q 94.66 1.32 97.27 1.39
  Q 98.18 1.42 98.81 2.08
  C 100.78 4.16 102.52 5.14 103.44 8.20
  Q 105.48 15.00 107.01 20.02
  Q 107.04 20.11 108.03 25.07
  Q 108.70 28.44 110.70 30.64
  Q 111.04 31.03 110.99 31.54
  Q 110.87 32.67 110.11 33.22
  A 0.77 0.77 0.0 0 0 110.02 34.39
  Q 112.22 36.55 114.35 38.89
  Q 115.22 39.86 119.81 42.40
  Q 120.27 42.65 122.27 44.67
  C 123.44 45.85 125.60 46.72 126.75 47.34
  A 1.19 0.45 23.9 0 1 127.48 48.06
  L 127.63 51.92
  Q 127.65 52.44 127.14 52.59
  Q 126.33 52.82 126.67 53.60
  C 129.26 59.50 124.10 63.68 118.89 60.25
  A 1.28 1.28 0.0 0 0 117.95 60.05
  Q 114.51 60.66 112.20 58.68
  A 1.00 0.99 -32.3 0 0 111.29 58.48
  Q 108.90 59.11 106.60 57.99
  A 0.53 0.49 4.0 0 1 106.35 57.72
  L 106.01 56.90
  Q 105.89 56.61 105.70 56.86
  C 104.66 58.18 102.84 57.83 101.40 57.48
  A 0.71 0.71 0.0 0 0 100.69 57.72
  L 97.91 61.13
  Q 97.51 61.63 98.08 61.33
  Q 98.56 61.09 99.17 60.46
  Q 101.08 58.49 103.19 60.05
  A 2.35 2.31 69.5 0 0 104.05 60.45
  Q 109.21 61.62 112.27 64.32
  Q 112.66 64.67 113.18 64.74
  Q 114.67 64.92 115.61 66.35
  Q 115.89 66.77 115.74 67.24
  Q 115.57 67.81 115.01 68.14
  Q 114.51 68.42 114.81 68.91
  Q 115.84 70.60 118.26 71.57
  Q 119.23 71.96 119.36 72.84
  C 119.64 74.77 119.29 76.63 117.29 77.44
  Q 116.81 77.63 116.80 78.15
  C 116.78 79.09 117.54 79.87 117.52 80.78
  Q 117.47 82.60 115.25 82.70
  C 111.13 82.88 106.14 80.32 103.45 84.84
  A 1.12 1.11 -79.7 0 1 102.69 85.37
  Q 99.39 85.95 96.58 87.03
  C 92.13 88.74 91.14 82.49 87.29 82.38
  A 0.74 0.74 0.0 0 0 86.62 83.49
  Q 87.69 85.39 88.91 88.12
  Q 89.61 89.70 88.58 90.86
  Q 88.23 91.25 88.38 91.74
  Q 92.39 105.14 95.50 117.04
  C 96.77 121.91 93.43 123.50 89.89 125.39
  Q 87.98 126.41 85.95 126.44
  Q 80.75 126.52 77.25 126.29
  A 1.25 1.24 71.8 0 1 76.35 125.83
  Q 75.80 125.16 76.39 124.35
  Z
  M 112.01 50.94
  Q 116.48 51.59 121.00 52.43
  Q 123.07 52.82 124.80 52.06
  A 1.85 1.85 0.0 0 0 124.94 48.74
  L 121.60 46.93
  Q 121.15 46.70 120.87 46.28
  C 118.67 43.07 115.52 43.15 113.28 40.72
  Q 111.41 38.68 109.77 37.09
  Q 108.60 35.96 108.00 33.32
  Q 103.44 13.32 101.37 7.91
  Q 100.87 6.60 97.39 3.63
  C 87.37 -4.91 70.95 29.26 66.46 37.90
  Q 66.34 38.12 66.16 38.26
  C 63.72 40.02 62.16 43.75 61.85 45.97
  Q 61.44 48.85 60.43 50.32
  Q 59.67 51.41 58.30 55.81
  Q 57.50 58.37 58.02 61.49
  Q 59.64 71.22 66.32 79.04
  Q 67.75 80.72 73.93 85.07
  C 76.15 86.63 77.17 87.70 77.99 90.23
  C 80.80 98.98 84.71 107.26 88.32 116.41
  A 1.91 1.90 66.7 0 1 87.36 118.84
  Q 82.80 120.99 79.33 124.30
  A 0.43 0.43 0.0 0 0 79.58 125.04
  Q 80.26 125.11 81.37 125.18
  C 83.07 125.28 84.18 124.53 85.82 124.53
  Q 87.05 124.52 88.39 123.87
  C 90.93 122.62 93.87 121.72 93.83 118.70
  Q 93.82 118.26 92.93 114.86
  Q 89.55 101.88 85.98 90.72
  Q 85.79 90.12 86.37 89.88
  L 86.70 89.75
  Q 87.29 89.50 87.10 88.90
  C 86.25 86.08 83.30 83.63 86.00 80.63
  Q 86.36 80.22 86.90 80.32
  C 88.87 80.66 90.24 80.85 91.79 82.62
  Q 93.21 84.24 94.21 85.13
  A 1.50 1.48 52.2 0 0 95.89 85.35
  Q 98.58 83.98 101.29 83.62
  Q 101.81 83.55 102.13 83.13
  C 105.47 78.64 110.57 81.01 115.23 80.94
  A 0.11 0.11 0.0 0 0 115.34 80.83
  L 115.32 80.51
  A 0.36 0.36 0.0 0 0 114.95 80.16
  Q 112.91 80.22 111.91 78.81
  A 0.52 0.52 0.0 0 1 112.33 77.99
  L 114.25 77.99
  Q 114.69 77.99 114.69 77.55
  L 114.69 76.26
  Q 114.69 75.66 115.29 75.66
  L 115.91 75.66
  A 0.66 0.65 -84.0 0 0 116.55 75.14
  L 116.86 73.66
  A 0.62 0.62 0.0 0 0 116.37 72.93
  L 115.30 72.70
  Q 114.96 72.63 114.72 72.39
  Q 112.71 70.36 110.55 68.73
  Q 108.32 67.03 110.86 67.38
  Q 111.39 67.45 112.02 67.40
  Q 114.32 67.22 112.30 66.27
  Q 112.00 66.13 110.79 66.10
  Q 110.23 66.09 110.02 65.58
  L 109.81 65.08
  Q 109.56 64.47 108.94 64.23
  L 102.45 61.72
  Q 101.96 61.53 101.46 61.71
  L 94.31 64.22
  Q 93.82 64.40 93.49 64.80
  Q 91.97 66.69 91.41 68.13
  Q 90.41 70.71 90.43 67.96
  Q 90.44 66.79 91.91 65.15
  Q 95.46 61.21 96.09 60.56
  C 97.83 58.77 98.76 56.52 99.98 54.69
  Q 100.27 54.27 100.64 54.63
  C 103.89 57.82 107.76 53.84 105.41 50.25
  Q 104.97 49.57 105.76 49.74
  L 108.49 50.30
  Q 109.20 50.45 108.59 50.84
  C 103.67 54.09 109.58 59.44 111.89 55.68
  Q 113.23 53.52 111.72 51.42
  Q 111.30 50.83 112.01 50.94
  Z
  M 115.6430 58.4157
  A 3.16 2.87 99.6 0 0 118.9998 55.7786
  A 3.16 2.87 99.6 0 0 116.6970 52.1843
  A 3.16 2.87 99.6 0 0 113.3402 54.8214
  A 3.16 2.87 99.6 0 0 115.6430 58.4157
  Z
  M 125.55 56.53
  A 3.02 3.02 0.0 0 0 122.53 53.51
  A 3.02 3.02 0.0 0 0 119.51 56.53
  A 3.02 3.02 0.0 0 0 122.53 59.55
  A 3.02 3.02 0.0 0 0 125.55 56.53
  Z"
/>
<path fill="#231f20" d="
  M 111.72 51.42
  Q 113.23 53.52 111.89 55.68
  C 109.58 59.44 103.67 54.09 108.59 50.84
  Q 109.20 50.45 108.49 50.30
  L 105.76 49.74
  Q 104.97 49.57 105.41 50.25
  C 107.76 53.84 103.89 57.82 100.64 54.63
  Q 100.27 54.27 99.98 54.69
  C 98.76 56.52 97.83 58.77 96.09 60.56
  Q 95.46 61.21 91.91 65.15
  Q 90.44 66.79 90.43 67.96
  Q 90.41 70.71 91.41 68.13
  Q 91.97 66.69 93.49 64.80
  Q 93.82 64.40 94.31 64.22
  L 101.46 61.71
  Q 101.96 61.53 102.45 61.72
  L 108.94 64.23
  Q 109.56 64.47 109.81 65.08
  L 110.02 65.58
  Q 110.23 66.09 110.79 66.10
  Q 112.00 66.13 112.30 66.27
  Q 114.32 67.22 112.02 67.40
  Q 111.39 67.45 110.86 67.38
  Q 108.32 67.03 110.55 68.73
  Q 112.71 70.36 114.72 72.39
  Q 114.96 72.63 115.30 72.70
  L 116.37 72.93
  A 0.62 0.62 0.0 0 1 116.86 73.66
  L 116.55 75.14
  A 0.66 0.65 -84.0 0 1 115.91 75.66
  L 115.29 75.66
  Q 114.69 75.66 114.69 76.26
  L 114.69 77.55
  Q 114.69 77.99 114.25 77.99
  L 112.33 77.99
  A 0.52 0.52 0.0 0 0 111.91 78.81
  Q 112.91 80.22 114.95 80.16
  A 0.36 0.36 0.0 0 1 115.32 80.51
  L 115.34 80.83
  A 0.11 0.11 0.0 0 1 115.23 80.94
  C 110.57 81.01 105.47 78.64 102.13 83.13
  Q 101.81 83.55 101.29 83.62
  Q 98.58 83.98 95.89 85.35
  A 1.50 1.48 52.2 0 1 94.21 85.13
  Q 93.21 84.24 91.79 82.62
  C 90.24 80.85 88.87 80.66 86.90 80.32
  Q 86.36 80.22 86.00 80.63
  C 83.30 83.63 86.25 86.08 87.10 88.90
  Q 87.29 89.50 86.70 89.75
  L 86.37 89.88
  Q 85.79 90.12 85.98 90.72
  Q 89.55 101.88 92.93 114.86
  Q 93.82 118.26 93.83 118.70
  C 93.87 121.72 90.93 122.62 88.39 123.87
  Q 87.05 124.52 85.82 124.53
  C 84.18 124.53 83.07 125.28 81.37 125.18
  Q 80.26 125.11 79.58 125.04
  A 0.43 0.43 0.0 0 1 79.33 124.30
  Q 82.80 120.99 87.36 118.84
  A 1.91 1.90 66.7 0 0 88.32 116.41
  C 84.71 107.26 80.80 98.98 77.99 90.23
  C 77.17 87.70 76.15 86.63 73.93 85.07
  Q 67.75 80.72 66.32 79.04
  Q 59.64 71.22 58.02 61.49
  Q 57.50 58.37 58.30 55.81
  Q 59.67 51.41 60.43 50.32
  Q 61.44 48.85 61.85 45.97
  C 62.16 43.75 63.72 40.02 66.16 38.26
  Q 66.34 38.12 66.46 37.90
  C 70.95 29.26 87.37 -4.91 97.39 3.63
  Q 100.87 6.60 101.37 7.91
  Q 103.44 13.32 108.00 33.32
  Q 108.60 35.96 109.77 37.09
  Q 111.41 38.68 113.28 40.72
  C 115.52 43.15 118.67 43.07 120.87 46.28
  Q 121.15 46.70 121.60 46.93
  L 124.94 48.74
  A 1.85 1.85 0.0 0 1 124.80 52.06
  Q 123.07 52.82 121.00 52.43
  Q 116.48 51.59 112.01 50.94
  Q 111.30 50.83 111.72 51.42
  Z
  M 95.26 28.83
  Q 95.90 28.27 96.77 28.29
  A 0.37 0.37 0.0 0 0 97.04 27.66
  Q 94.70 25.36 94.21 22.84
  Q 93.69 20.16 92.67 22.69
  L 90.78 27.34
  A 2.00 1.90 -13.2 0 1 90.38 27.95
  Q 89.78 28.57 89.62 29.19
  Q 89.46 29.77 90.05 29.85
  Q 93.53 30.34 95.26 28.83
  Z
  M 98.34 41.43
  L 98.91 39.96
  Q 99.22 39.16 98.47 39.59
  C 96.40 40.77 95.28 42.31 92.54 42.19
  Q 91.99 42.16 91.64 42.59
  L 89.44 45.30
  Q 89.14 45.67 89.03 46.14
  Q 88.33 49.06 87.45 49.70
  Q 85.54 51.07 81.66 53.64
  A 1.82 1.82 0.0 0 0 80.94 55.73
  Q 81.83 58.38 81.29 61.13
  Q 81.17 61.71 81.76 61.76
  Q 83.73 61.92 84.55 62.90
  Q 85.49 64.01 86.16 62.72
  C 87.57 60.01 88.76 57.71 90.65 55.38
  Q 94.73 50.31 95.66 49.39
  C 97.63 47.43 97.66 44.81 98.91 42.31
  Q 98.97 42.18 98.78 42.08
  Q 98.74 42.06 98.51 41.92
  Q 98.21 41.75 98.34 41.43
  Z"
/>
<path fill="#fdfcfc" fill-opacity="0.992" d="
  M 95.26 28.83
  Q 93.53 30.34 90.05 29.85
  Q 89.46 29.77 89.62 29.19
  Q 89.78 28.57 90.38 27.95
  A 2.00 1.90 -13.2 0 0 90.78 27.34
  L 92.67 22.69
  Q 93.69 20.16 94.21 22.84
  Q 94.70 25.36 97.04 27.66
  A 0.37 0.37 0.0 0 1 96.77 28.29
  Q 95.90 28.27 95.26 28.83
  Z
  M 92.79 27.03
  Q 92.65 27.15 92.66 27.67
  Q 92.67 28.20 93.20 28.18
  Q 94.04 28.14 94.06 27.75
  Q 94.17 25.94 92.79 27.03
  Z"
/>
<path fill="#fdfcfc" fill-opacity="0.992" d="
  M 98.51 41.92
  Q 98.74 42.06 98.78 42.08
  Q 98.97 42.18 98.91 42.31
  C 97.66 44.81 97.63 47.43 95.66 49.39
  Q 94.73 50.31 90.65 55.38
  C 88.76 57.71 87.57 60.01 86.16 62.72
  Q 85.49 64.01 84.55 62.90
  Q 83.73 61.92 81.76 61.76
  Q 81.17 61.71 81.29 61.13
  Q 81.83 58.38 80.94 55.73
  A 1.82 1.82 0.0 0 1 81.66 53.64
  Q 85.54 51.07 87.45 49.70
  Q 88.33 49.06 89.03 46.14
  Q 89.14 45.67 89.44 45.30
  L 91.64 42.59
  Q 91.99 42.16 92.54 42.19
  C 95.28 42.31 96.40 40.77 98.47 39.59
  Q 99.22 39.16 98.91 39.96
  L 98.34 41.43
  Q 98.21 41.75 98.51 41.92
  Z
  M 93.46 44.11
  A 0.61 0.60 15.3 0 0 92.84 44.46
  Q 92.56 45.08 91.47 45.93
  Q 91.08 46.24 91.04 46.74
  Q 90.83 49.52 88.11 51.63
  Q 85.03 54.02 83.48 54.74
  Q 83.11 54.91 83.13 55.31
  L 83.32 59.72
  Q 83.35 60.36 83.99 60.36
  L 84.96 60.36
  Q 85.43 60.36 85.58 59.91
  Q 86.36 57.44 87.85 55.55
  Q 90.51 52.20 90.64 52.02
  Q 91.82 50.40 93.48 48.79
  C 95.35 46.98 95.35 45.80 96.35 43.77
  Q 96.67 43.11 96.04 43.49
  Q 94.75 44.27 93.46 44.11
  Z"
/>
<path fill="#bc0004" d="
  M 397.25 54.29
  L 399.88 47.47
  A 0.32 0.32 0.0 0 1 400.18 47.27
  L 436.65 47.27
  A 0.32 0.32 0.0 0 1 436.95 47.71
  L 434.32 54.52
  A 0.32 0.32 0.0 0 1 434.02 54.72
  L 420.54 54.72
  A 0.32 0.32 0.0 0 0 420.24 54.92
  L 406.78 89.79
  A 0.32 0.32 0.0 0 1 406.48 89.99
  L 397.74 89.99
  A 0.32 0.32 0.0 0 1 397.44 89.55
  L 410.72 55.17
  A 0.32 0.32 0.0 0 0 410.42 54.73
  L 397.55 54.73
  A 0.32 0.32 0.0 0 1 397.25 54.29
  Z"
/>
<path fill="#bc0004" d="
  M 286.25 64.92
  C 293.00 64.92 298.63 64.10 302.88 66.96
  C 306.94 69.69 303.70 77.25 301.78 80.56
  Q 296.68 89.36 286.26 89.86
  Q 280.81 90.12 259.65 89.97
  A 0.20 0.19 11.5 0 1 259.47 89.71
  L 262.24 82.53
  Q 262.34 82.27 262.63 82.27
  Q 281.98 82.32 285.74 82.33
  Q 291.66 82.36 294.00 77.02
  Q 294.66 75.51 294.35 74.17
  Q 294.23 73.65 293.78 73.36
  C 291.66 72.04 289.29 72.37 286.17 72.37
  C 279.42 72.39 273.79 73.21 269.54 70.35
  C 265.48 67.62 268.72 60.06 270.64 56.75
  Q 275.74 47.95 286.16 47.45
  Q 291.61 47.19 312.77 47.34
  A 0.20 0.19 11.5 0 1 312.95 47.60
  L 310.18 54.78
  Q 310.08 55.04 309.79 55.04
  Q 290.44 54.99 286.68 54.98
  Q 280.76 54.95 278.42 60.29
  Q 277.76 61.80 278.07 63.14
  Q 278.19 63.66 278.64 63.95
  C 280.76 65.27 283.13 64.93 286.25 64.92
  Z"
/>
<path fill="#bc0004" d="
  M 323.65 66.96
  L 347.18 47.60
  Q 347.58 47.27 348.09 47.27
  L 357.80 47.27
  Q 358.43 47.27 357.94 47.67
  L 333.49 67.79
  Q 333.01 68.18 333.25 68.75
  L 341.85 89.51
  Q 342.05 90.00 341.53 90.00
  L 331.14 90.00
  A 0.59 0.58 -63.9 0 1 330.60 89.64
  L 322.27 69.54
  A 0.17 0.17 0.0 0 0 321.95 69.54
  L 314.15 89.73
  Q 314.05 89.99 313.77 89.99
  L 305.26 89.99
  A 0.18 0.17 -79.5 0 1 305.10 89.75
  L 321.40 47.56
  Q 321.50 47.29 321.80 47.29
  L 330.29 47.29
  Q 330.57 47.29 330.47 47.55
  L 323.12 66.58
  Q 322.66 67.78 323.65 66.96
  Z"
/>
<path fill="#bc0004" d="
  M 361.04 79.84
  L 352.89 89.88
  A 0.33 0.33 0.0 0 1 352.63 90.00
  L 344.17 90.00
  A 0.33 0.33 0.0 0 1 343.92 89.46
  L 378.11 47.39
  A 0.33 0.33 0.0 0 1 378.37 47.27
  L 387.50 47.27
  A 0.33 0.33 0.0 0 1 387.83 47.59
  L 389.64 89.66
  A 0.33 0.33 0.0 0 1 389.31 90.00
  L 379.87 90.00
  A 0.33 0.33 0.0 0 1 379.54 89.67
  L 379.54 80.05
  A 0.33 0.33 0.0 0 0 379.21 79.72
  L 361.30 79.72
  A 0.33 0.33 0.0 0 0 361.04 79.84
  Z
  M 379.22 72.28
  A 0.32 0.32 0.0 0 0 379.54 71.96
  L 379.54 56.91
  A 0.32 0.32 0.0 0 0 378.97 56.71
  L 366.73 71.76
  A 0.32 0.32 0.0 0 0 366.98 72.28
  L 379.22 72.28
  Z"
/>
<path fill="#bc0004" d="
  M 444.18 64.49
  A 0.17 0.16 -79.0 0 0 444.33 64.72
  L 468.76 64.72
  A 0.25 0.24 10.6 0 1 468.99 65.05
  L 466.29 72.04
  Q 466.20 72.28 465.95 72.28
  L 441.74 72.28
  A 0.73 0.73 0.0 0 0 441.06 72.75
  Q 439.80 76.10 439.81 76.99
  Q 439.93 82.19 445.59 82.40
  Q 453.05 82.68 461.93 82.52
  Q 462.19 82.52 462.10 82.76
  L 459.42 89.69
  A 0.48 0.46 -78.6 0 1 458.99 89.99
  Q 453.45 90.01 442.51 90.00
  Q 441.18 90.00 438.53 89.47
  C 422.97 86.34 431.54 67.73 436.55 60.05
  Q 444.58 47.74 459.51 47.31
  Q 461.54 47.25 475.57 47.30
  A 0.19 0.19 0.0 0 1 475.74 47.56
  L 473.07 54.48
  Q 472.98 54.71 472.73 54.72
  Q 466.87 54.75 462.39 54.68
  Q 455.08 54.55 452.23 55.83
  Q 446.75 58.29 444.18 64.49
  Z"
/>
<path fill="#bc0004" d="
  M 482.26 73.27
  Q 481.76 73.27 481.58 73.73
  L 475.39 89.76
  Q 475.30 89.98 475.06 89.98
  L 466.51 89.98
  A 0.18 0.18 0.0 0 1 466.34 89.74
  L 482.57 47.77
  Q 482.75 47.30 483.26 47.30
  Q 500.86 47.24 506.75 47.29
  C 511.40 47.33 517.30 49.32 516.41 55.23
  Q 514.43 68.38 502.48 72.09
  Q 501.97 72.25 502.08 72.77
  L 505.51 89.40
  Q 505.63 89.99 505.03 89.99
  L 495.92 89.99
  Q 495.68 89.99 495.63 89.76
  L 492.28 73.63
  Q 492.21 73.27 491.84 73.27
  L 482.26 73.27
  Z
  M 498.55 65.60
  Q 505.75 65.09 506.73 57.49
  Q 506.80 57.01 506.46 56.67
  Q 505.03 55.24 503.37 55.13
  Q 499.07 54.86 489.32 55.05
  Q 488.79 55.07 488.60 55.56
  L 484.91 65.12
  Q 484.70 65.66 485.28 65.67
  Q 495.18 65.84 498.55 65.60
  Z"
/>
<path fill="#bc0004" d="
  M 537.17 72.39
  C 530.43 72.40 524.79 73.23 520.54 70.38
  C 516.48 67.65 519.71 60.08 521.63 56.77
  Q 526.72 47.97 537.14 47.46
  Q 542.59 47.20 563.75 47.33
  A 0.20 0.19 11.5 0 1 563.93 47.59
  L 561.17 54.77
  Q 561.07 55.03 560.78 55.03
  Q 541.43 55.00 537.67 54.99
  Q 531.75 54.97 529.41 60.31
  Q 528.75 61.82 529.07 63.16
  Q 529.19 63.68 529.64 63.97
  C 531.76 65.29 534.13 64.95 537.25 64.93
  C 543.99 64.93 549.63 64.10 553.88 66.96
  C 557.94 69.69 554.71 77.25 552.79 80.56
  Q 547.70 89.36 537.28 89.87
  Q 531.83 90.13 510.67 90.00
  A 0.20 0.19 11.5 0 1 510.49 89.74
  L 513.25 82.56
  Q 513.35 82.30 513.64 82.30
  Q 532.99 82.33 536.75 82.34
  Q 542.67 82.37 545.01 77.03
  Q 545.67 75.52 545.35 74.18
  Q 545.23 73.66 544.78 73.37
  C 542.66 72.05 540.29 72.38 537.17 72.39
  Z"
/>
<path fill="#ff6600" d="
  M 222.80 57.05
  C 230.70 49.04 242.62 46.29 253.14 49.44
  C 267.97 53.88 256.41 77.36 249.66 84.21
  C 241.76 92.21 229.85 94.97 219.32 91.82
  C 204.49 87.38 216.05 63.90 222.80 57.05
  Z
  M 227.08 65.06
  C 223.76 70.52 218.05 84.37 228.77 85.48
  C 236.24 86.26 241.56 82.35 245.29 76.23
  C 248.62 70.77 254.32 56.92 243.60 55.81
  C 236.13 55.03 230.81 58.94 227.08 65.06
  Z"
/>
<path fill="#ff6600" d="
  M 135.65 77.49
  L 130.15 91.73
  A 0.41 0.41 0.0 0 1 129.77 91.99
  L 121.26 91.99
  A 0.17 0.17 0.0 0 1 121.10 91.76
  L 137.30 49.81
  Q 137.49 49.31 138.03 49.31
  Q 151.54 49.22 159.48 49.34
  C 163.37 49.40 169.54 50.25 171.17 53.66
  C 173.13 57.76 170.67 63.72 168.43 67.45
  Q 164.62 73.81 158.12 75.59
  C 150.98 77.55 143.20 77.05 136.40 76.98
  Q 135.85 76.98 135.65 77.49
  Z
  M 143.93 57.00
  A 0.50 0.48 10.3 0 0 143.47 57.31
  L 138.93 69.06
  Q 138.77 69.48 139.22 69.50
  Q 145.82 69.70 151.15 69.41
  Q 157.61 69.07 160.16 63.74
  Q 161.21 61.54 160.90 59.49
  Q 160.82 58.99 160.45 58.67
  Q 158.69 57.14 156.73 57.07
  Q 153.94 56.97 143.93 57.00
  Z"
/>
<path fill="#ff6600" d="
  M 179.58 75.74
  L 173.39 91.78
  Q 173.30 92.00 173.06 92.00
  L 164.51 92.00
  A 0.18 0.18 0.0 0 1 164.34 91.76
  L 180.56 49.77
  Q 180.74 49.30 181.25 49.30
  Q 198.86 49.24 204.75 49.29
  C 209.40 49.33 215.30 51.32 214.41 57.23
  Q 212.44 70.38 200.48 74.10
  Q 199.97 74.26 200.08 74.78
  L 203.52 91.41
  Q 203.64 92.00 203.04 92.00
  L 193.92 92.00
  Q 193.68 92.00 193.63 91.77
  L 190.28 75.64
  Q 190.21 75.28 189.84 75.28
  L 180.26 75.28
  Q 179.76 75.28 179.58 75.74
  Z
  M 196.55 67.60
  Q 203.75 67.09 204.72 59.49
  Q 204.79 59.01 204.45 58.67
  Q 203.02 57.24 201.36 57.13
  Q 197.06 56.86 187.32 57.05
  Q 186.79 57.07 186.60 57.56
  L 182.91 67.12
  Q 182.70 67.66 183.28 67.67
  Q 193.18 67.84 196.55 67.60
  Z"
/>
<ellipse fill="#231f20" cx="0.00" cy="0.00" transform="translate(116.17,55.30) rotate(99.6)" rx="3.16" ry="2.87"/>
<circle fill="#231f20" cx="122.53" cy="56.53" r="3.02"/>
<path fill="#231f20" d="
  M 200.63 107.46
  C 199.24 109.78 193.70 120.38 199.79 120.32
  Q 204.26 120.28 206.31 115.85
  Q 206.42 115.62 206.68 115.62
  L 212.26 115.62
  Q 212.62 115.62 212.44 115.94
  Q 207.34 125.03 198.28 125.37
  C 190.10 125.69 188.99 118.98 191.27 112.71
  Q 194.25 104.53 200.81 100.55
  C 207.07 96.76 219.09 96.65 215.41 108.29
  Q 215.34 108.51 215.11 108.52
  L 209.03 108.78
  A 0.15 0.14 -82.7 0 1 208.89 108.59
  Q 210.59 103.54 207.33 103.34
  Q 203.25 103.10 200.63 107.46
  Z"
/>
<path fill="#231f20" d="
  M 119.49 115.79
  L 116.01 124.79
  Q 115.94 124.99 115.72 124.99
  L 109.87 124.99
  Q 109.74 124.99 109.79 124.87
  L 119.67 99.27
  A 0.90 0.90 0.0 0 1 120.52 98.70
  Q 126.30 98.75 129.49 98.71
  Q 133.84 98.66 135.37 99.47
  Q 139.08 101.46 137.44 106.22
  Q 134.98 113.32 127.42 115.04
  C 125.42 115.49 122.63 115.23 120.16 115.31
  Q 119.67 115.33 119.49 115.79
  Z
  M 121.83 109.45
  Q 121.37 110.65 122.65 110.62
  C 127.00 110.55 131.05 110.01 131.25 105.27
  A 1.72 1.72 0.0 0 0 129.53 103.47
  L 125.33 103.47
  Q 124.14 103.47 123.71 104.58
  L 121.83 109.45
  Z"
/>
<path fill="#231f20" d="
  M 155.26 120.17
  L 153.47 124.79
  A 0.33 0.33 0.0 0 1 153.16 125.00
  L 137.24 125.00
  A 0.33 0.33 0.0 0 1 136.93 124.55
  L 146.83 98.93
  A 0.33 0.33 0.0 0 1 147.14 98.72
  L 152.70 98.72
  A 0.33 0.33 0.0 0 1 153.01 99.17
  L 145.24 119.27
  A 0.33 0.33 0.0 0 0 145.55 119.72
  L 154.95 119.72
  A 0.33 0.33 0.0 0 1 155.26 120.17
  Z"
/>
<path fill="#231f20" d="
  M 167.22 119.60
  L 163.48 124.84
  A 0.36 0.36 0.0 0 1 163.18 124.99
  L 158.71 124.99
  A 0.36 0.36 0.0 0 1 158.42 124.42
  L 176.69 98.87
  A 0.36 0.36 0.0 0 1 176.99 98.72
  L 183.57 98.72
  A 0.36 0.36 0.0 0 1 183.93 99.11
  L 181.86 124.65
  A 0.36 0.36 0.0 0 1 181.50 124.98
  L 175.62 124.98
  A 0.36 0.36 0.0 0 1 175.26 124.59
  L 175.65 119.84
  A 0.36 0.36 0.0 0 0 175.29 119.45
  L 167.52 119.45
  A 0.36 0.36 0.0 0 0 167.22 119.60
  Z
  M 176.00 114.73
  A 0.26 0.26 0.0 0 0 176.26 114.49
  L 176.89 106.74
  Q 176.98 105.68 176.36 106.55
  L 170.80 114.32
  A 0.26 0.26 0.0 0 0 171.01 114.73
  L 176.00 114.73
  Z"
/>
<path fill="#231f20" d="
  M 237.36 120.18
  L 235.57 124.79
  A 0.33 0.33 0.0 0 1 235.26 125.00
  L 217.22 125.00
  A 0.33 0.33 0.0 0 1 216.91 124.55
  L 226.81 98.93
  A 0.33 0.33 0.0 0 1 227.12 98.72
  L 245.32 98.72
  A 0.33 0.33 0.0 0 1 245.63 99.17
  L 243.95 103.51
  A 0.33 0.33 0.0 0 1 243.64 103.72
  L 231.51 103.72
  A 0.33 0.33 0.0 0 0 231.20 103.93
  L 229.40 108.56
  A 0.33 0.33 0.0 0 0 229.71 109.01
  L 238.58 109.01
  A 0.33 0.33 0.0 0 1 238.89 109.46
  L 237.22 113.78
  A 0.33 0.33 0.0 0 1 236.91 113.99
  L 227.45 113.99
  A 0.33 0.33 0.0 0 0 227.14 114.20
  L 225.17 119.28
  A 0.33 0.33 0.0 0 0 225.48 119.73
  L 237.05 119.73
  A 0.33 0.33 0.0 0 1 237.36 120.18
  Z"
/>
<path fill="#fdfcfc" fill-opacity="0.992" d="
  M 3.66 125.76
  Q 2.88 126.27 2.37 125.90
  A 0.51 0.51 0.0 0 1 2.46 125.02
  Q 3.19 124.70 3.72 125.33
  Q 3.94 125.58 3.66 125.76
  Z"
/>
</svg>
