<svg xmlns="http://www.w3.org/2000/svg" width="780" height="500" fill="none" viewBox="0 0 780 500"><path fill="#FF5A00" d="M465.738 113.525H313.812v272.95h151.926v-272.95Z"/><path fill="#EB001B" d="M323.926 250c0-55.455 26.07-104.674 66.074-136.475-29.441-23.148-66.58-37.138-107.09-37.138-95.965 0-173.613 77.648-173.613 173.613s77.648 173.614 173.613 173.614c40.51 0 77.649-13.991 107.09-37.139-40.06-31.352-66.074-81.02-66.074-136.475Z"/><path fill="#F79E1B" d="M670.711 250c0 95.965-77.649 173.614-173.613 173.614-40.51 0-77.649-13.991-107.09-37.139 40.51-31.857 66.074-81.02 66.074-136.475s-26.07-104.674-66.074-136.475c29.385-23.148 66.524-37.138 107.033-37.138 96.021 0 173.67 78.154 173.67 173.613Z"/></svg>