<?xml version="1.0" encoding="utf-8"?>
<!-- Generator: Adobe Illustrator 16.0.0, SVG Export Plug-In . SVG Version: 6.00 Build 0)  -->
<!DOCTYPE svg PUBLIC "-//W3C//DTD SVG 1.1//EN" "http://www.w3.org/Graphics/SVG/1.1/DTD/svg11.dtd">
<svg version="1.1" id="图层_1" xmlns="http://www.w3.org/2000/svg" xmlns:xlink="http://www.w3.org/1999/xlink" x="0px" y="0px"
	 width="146.227px" height="167.27px" viewBox="0 0 146.227 167.27" enable-background="new 0 0 146.227 167.27"
	 xml:space="preserve">
<path fill-rule="evenodd" clip-rule="evenodd" fill="#030303" d="M48.005,89.83h-0.222c-5.982,0-11.282-2.928-11.282-8.851h-0.885
	c-0.27,0.562-0.664,1.614-0.664,2.435v1.99c0,2.51,3.709,5.371,5.482,6.465c2.155,1.329,6.29,2.165,9.782,2.165h0.663l0.041,0.275
	l11.905-1.824c-0.133,1.59-7.838,16.388-9.066,18.81c-2.967,5.845-6.723,12.179-10.313,17.564
	c-5.326,7.991-17.939,26.02-29.953,26.02h-0.442c-2.177,0-5.03-1.748-6.145-2.926c-1.517-1.604-2.323-4.597-4.695-4.597
	C1.1,147.356,0,148.457,0,149.569v0.664c0,3.708,3.981,8.961,8.785,10.103l3.998,0.726c5.188,1.392,16.729-2.568,19.235-4.486
	c3.513-2.687,5.197-3.738,7.918-7.194c2.93-3.722,6.189-8.324,8.832-12.369c2.606-3.991,2.523-5.275,5.052-9.287
	c1.116-1.771,3.24-6.924,4.209-8.846c1.107-2.194,3.349-6.23,4.365-8.628c0.862-2.034,2.142-4.604,3.171-6.696
	c0.934-1.896,3.465-6.659,4.469-8.374c0.661-1.129,3.189-5.059,3.956-5.955c2.372-0.802,2.197-0.563,4.518-1.412
	c2-0.731,12.943-4.621,14.578-4.775l8.669-2.501l-0.657,19.691c-0.233,6.027,0.789,16.456,1.595,22.079
	c0.94,6.558,2.517,13.597,4.294,19.602c2.974,10.045,10.028,25.361,22.427,25.361h0.886c3.64,0,7.293-3.248,8.938-5.443
	c1.091-1.455,2.122-2.683,2.816-4.484c0.404-1.047,0.939-1.556,1.271-2.268c0.378-0.81,0.306-2.296,1.132-2.63
	c0-2.331,1.771-4.957,1.771-7.744v-1.327c0-0.518-0.367-0.885-0.886-0.885h-0.442c-0.496,0-0.485,0.175-0.885,0.442
	c0,3.133-2.771,10.526-3.975,12.618c-1.767,3.068-3.92,8.179-8.635,8.179h-0.442c-7.164,0-10.506-16.996-12.216-23.846
	c-1.844-7.386-3.048-24.019-3.048-33.237l1.106-29.416l8.185-0.675h0.663c4.377,0,7.72,0.864,10.933,2.12
	c3.452,1.35,4.996,3.352,4.996,8.058c1.811-0.959,2.433-2.138,2.433-4.868v-0.663c0-3.392-3.36-6.094-5.574-7.479
	c-1.716-1.073-7.691-2.92-10.354-2.92l-1.993-0.054l-8.625,0.275l-0.043-0.891c0.857-8.509,1.785-17.435,3.458-25.785
	c0.458-2.286,0.48-4.732,0.928-7.036c0.424-2.173,0.822-4.846,0.967-6.999c0.117-1.747,0.82-4.791,1.16-6.805
	c-2.833,16.78-3.246,13.821,1.068-6.896c0.563-2.704,2.195-11.46,2.195-13.956V1.991c0-1.095-2.3-1.991-3.539-1.991h-1.991
	c-2.623,0-10.01,6.803-11.78,8.574c-3.613,3.614-6.273,6.855-9.396,10.957c-5.609,7.364-11.026,17.001-15.325,25.605
	c-4.602,9.21-8.682,18.239-13.119,27.811c-0.7,1.511-6.202,13.576-6.577,13.776c-0.85,0.453-6.623,1.803-8.085,2.092
	C54.226,89.44,51.745,89.83,48.005,89.83L48.005,89.83z M76.544,82.804c0.903-1.907-0.389,1.02,1.837-4.613
	c1.448-3.666,3.677-8.32,5.007-11.826c2.751-7.249,7.183-15.484,10.546-22.28c5.16-10.428,15.53-33.264,24.419-39.216
	c-0.084,1.007-2.178,6.605-2.68,8.161c-0.845,2.622-1.725,5.142-2.54,8.08c-1.528,5.512-3.08,11.213-4.47,16.77
	c-1.44,5.758-2.588,11.729-3.64,17.822c-0.91,5.278-2.473,12.989-2.599,18.641l-1.962,0.552c-0.558,0.244-13.565,4.498-15.378,5.116
	C82.618,80.852,78.621,81.74,76.544,82.804z"/>
</svg>
